<svg width="36" height="36" viewBox="0 0 36 36" fill="none" xmlns="http://www.w3.org/2000/svg">
<path d="M18 3C12.4865 3 8 6.9445 8 11.793C8 14.358 9.684 16.999 11.3105 19.551C12.712 21.7475 14.0505 23.844 14.4685 26H21.531C21.95 23.8435 23.287 21.747 24.688 19.551C26.3155 16.999 28 14.358 28 11.793C28 6.9445 23.5135 3 18 3ZM18 16.837C18.966 17.8795 19.876 18.1895 20.292 18.2815C20.2295 18.559 20.173 18.83 20.1075 19.097C19.9845 19.643 19.8645 20.175 19.748 20.686C19.4234 22.1222 19.1075 23.5604 18.8005 25.0005H17.199C16.8912 23.5606 16.5754 22.1224 16.2515 20.686L15.891 19.097C15.8255 18.83 15.769 18.559 15.7075 18.2815C16.124 18.1895 17.034 17.8795 18 16.837ZM17.7305 15.7455C17.635 15.539 17.6005 15.328 17.6985 15.1725C17.7805 15.049 17.889 14.9785 18.0005 14.9785C18.112 14.9785 18.2195 15.049 18.3025 15.1725C18.4 15.328 18.366 15.5385 18.2705 15.7455C18.2 15.8915 18.1035 16.0305 18 16.165C17.8954 16.0352 17.8051 15.8946 17.7305 15.7455ZM23.8455 19.0125C22.554 21.037 21.326 22.9615 20.744 25H19.121C19.4808 23.5911 19.833 22.1802 20.1775 20.7675C20.3005 20.257 20.4305 19.7285 20.563 19.1835C20.637 18.8935 20.7025 18.5945 20.775 18.297C21.153 18.2715 21.5145 18.1535 21.7965 17.895C22.0855 17.6105 22.236 17.2385 22.1685 16.8415C22.138 16.6515 21.9955 16.4055 21.7205 16.3215C21.586 16.2761 21.4409 16.2728 21.3045 16.312C21.1909 16.3541 21.0886 16.4218 21.0055 16.51C20.739 16.806 20.642 17.1015 20.533 17.3945C20.482 17.542 20.44 17.6895 20.4 17.835C20.4 17.835 19.975 17.8675 19.066 17.256C18.561 16.9165 18.4155 16.671 18.269 16.5085C18.427 16.333 18.5785 16.1405 18.696 15.907C18.7585 15.7765 18.811 15.635 18.829 15.476C18.847 15.317 18.8175 15.137 18.7265 14.982C18.6294 14.8101 18.4769 14.6762 18.294 14.602C18.203 14.5695 18.1015 14.554 18 14.554C17.8985 14.554 17.796 14.569 17.706 14.602C17.5229 14.6763 17.3702 14.8102 17.2725 14.982C17.1815 15.1375 17.1525 15.317 17.17 15.476C17.1902 15.6262 17.2355 15.7719 17.304 15.907C17.421 16.1405 17.5725 16.3335 17.731 16.5085C17.5845 16.671 17.438 16.9165 16.933 17.256C16.024 17.868 15.599 17.835 15.599 17.835C15.5598 17.6868 15.5158 17.5399 15.467 17.3945C15.3565 17.1015 15.261 16.806 14.9945 16.51C14.9115 16.4217 14.8092 16.354 14.6955 16.312C14.5591 16.2728 14.414 16.2761 14.2795 16.3215C14.003 16.4055 13.8615 16.6515 13.8315 16.8415C13.763 17.2385 13.9145 17.6105 14.2035 17.895C14.4865 18.1535 14.847 18.2715 15.225 18.297C15.2965 18.595 15.3615 18.8935 15.437 19.1835L15.8225 20.7675C16.1673 22.1802 16.5195 23.591 16.879 25H15.256C14.675 22.9635 13.4465 21.039 12.1515 19.0105C10.602 16.579 9 14.065 9 11.793C9 7.496 13.037 4 18 4C22.9625 4 27 7.496 27 11.793C27 14.066 25.3965 16.5805 23.8455 19.0125ZM20.8995 17.832C20.929 17.7295 20.959 17.6255 20.994 17.5255C21.0885 17.262 21.209 16.9755 21.373 16.804C21.412 16.76 21.452 16.7425 21.4725 16.731C21.4725 16.733 21.5215 16.725 21.5525 16.7405C21.608 16.7545 21.661 16.812 21.6815 16.9225C21.7215 17.1365 21.62 17.412 21.4365 17.5845C21.3075 17.707 21.1085 17.793 20.8995 17.832ZM15.0995 17.832C14.8905 17.793 14.6915 17.707 14.5635 17.584C14.379 17.4115 14.2785 17.136 14.3185 16.922C14.339 16.811 14.3915 16.754 14.4475 16.74C14.479 16.725 14.5275 16.7325 14.5275 16.7305C14.547 16.742 14.588 16.76 14.625 16.8035C14.79 16.9755 14.91 17.2615 15.005 17.525C15.04 17.6255 15.0705 17.7295 15.0995 17.832ZM15.26 26.7785H14.76V28.5785H15.144V30.179H15.528V31.7795H16.171C16.4735 32.494 17.1735 33 18 33C18.826 33 19.5255 32.494 19.829 31.7785H20.4925V30.168L20.5485 30.1475L20.876 30.0275V28.566L20.9085 28.5555L21.259 28.4455V26.778L15.26 26.7785Z" fill="#5C5C5C"/>
</svg>
