<svg width="57" height="57" viewBox="0 0 57 57" fill="none" xmlns="http://www.w3.org/2000/svg">
<circle cx="28.5" cy="28.5" r="28.5" fill="#D9D9D9"/>
<path d="M50.7376 24.8888L48.2385 18.6411C48.0265 18.1125 47.6607 17.6598 47.1884 17.3415C46.7161 17.0232 46.1591 16.8541 45.5895 16.8561H39.4168V15.428C39.4168 15.0493 39.2664 14.6861 38.9986 14.4183C38.7308 14.1505 38.3675 14 37.9888 14H10.8561C10.0986 14 9.37214 14.3009 8.83653 14.8365C8.30091 15.3721 8 16.0986 8 16.8561V36.8486C8 37.6061 8.30091 38.3325 8.83653 38.8682C9.37214 39.4038 10.0986 39.7047 10.8561 39.7047H13.8907C14.2053 40.9334 14.9198 42.0224 15.9218 42.8002C16.9237 43.5779 18.156 44 19.4243 44C20.6926 44 21.9249 43.5779 22.9268 42.8002C23.9288 42.0224 24.6434 40.9334 24.958 39.7047H33.8832C34.1978 40.9334 34.9124 42.0224 35.9143 42.8002C36.9162 43.5779 38.1485 44 39.4168 44C40.6852 44 41.9175 43.5779 42.9194 42.8002C43.9213 42.0224 44.6359 40.9334 44.9505 39.7047H47.9851C48.7425 39.7047 49.469 39.4038 50.0046 38.8682C50.5402 38.3325 50.8411 37.6061 50.8411 36.8486V25.4243C50.8416 25.2408 50.8065 25.0589 50.7376 24.8888ZM39.4168 19.7122H45.5895L47.3032 23.9963H39.4168V19.7122ZM10.8561 16.8561H36.5608V28.2804H10.8561V16.8561ZM19.4243 41.1327C18.8594 41.1327 18.3072 40.9652 17.8376 40.6514C17.3679 40.3376 17.0018 39.8915 16.7856 39.3696C16.5695 38.8477 16.5129 38.2735 16.6231 37.7195C16.7333 37.1654 17.0053 36.6565 17.4048 36.2571C17.8042 35.8577 18.3131 35.5857 18.8671 35.4755C19.4211 35.3652 19.9954 35.4218 20.5173 35.638C21.0392 35.8541 21.4852 36.2202 21.799 36.6899C22.1129 37.1596 22.2804 37.7118 22.2804 38.2766C22.2804 39.0341 21.9795 39.7606 21.4439 40.2962C20.9082 40.8318 20.1818 41.1327 19.4243 41.1327ZM33.8832 36.8486H24.958C24.6434 35.6199 23.9288 34.5309 22.9268 33.7531C21.9249 32.9754 20.6926 32.5533 19.4243 32.5533C18.156 32.5533 16.9237 32.9754 15.9218 33.7531C14.9198 34.5309 14.2053 35.6199 13.8907 36.8486H10.8561V31.1365H36.5608V33.3339C35.9041 33.7134 35.3293 34.2195 34.8697 34.8229C34.4101 35.4262 34.0748 36.1147 33.8832 36.8486ZM39.4168 41.1327C38.852 41.1327 38.2998 40.9652 37.8301 40.6514C37.3604 40.3376 36.9943 39.8915 36.7782 39.3696C36.562 38.8477 36.5054 38.2735 36.6156 37.7195C36.7258 37.1654 36.9979 36.6565 37.3973 36.2571C37.7967 35.8577 38.3056 35.5857 38.8596 35.4755C39.4137 35.3652 39.9879 35.4218 40.5098 35.638C41.0317 35.8541 41.4778 36.2202 41.7916 36.6899C42.1054 37.1596 42.2729 37.7118 42.2729 38.2766C42.2729 39.0341 41.972 39.7606 41.4364 40.2962C40.9008 40.8318 40.1743 41.1327 39.4168 41.1327ZM47.9851 36.8486H44.9505C44.6321 35.6229 43.9162 34.5374 42.9148 33.7622C41.9135 32.9869 40.6832 32.5657 39.4168 32.5645V26.8523H47.9851V36.8486Z" fill="#5C5C5C"/>
</svg>
