<svg width="70" height="70" viewBox="0 0 70 70" fill="none" xmlns="http://www.w3.org/2000/svg">
<g opacity="0.7">
<path d="M63.4812 25.7119L18.41 20.7244L15.6625 10.3141C15.567 9.96492 15.3598 9.65661 15.0727 9.43621C14.7855 9.21581 14.4341 9.09543 14.0722 9.09345H7.30623C7.06169 8.76427 6.74425 8.4962 6.37877 8.31023C6.0133 8.12427 5.60972 8.02547 5.19967 8.02158C4.4794 8.02158 3.78863 8.3077 3.27932 8.81701C2.77001 9.32632 2.48389 10.0171 2.48389 10.7374C2.48389 11.4576 2.77001 12.1484 3.27932 12.6577C3.78863 13.167 4.4794 13.4531 5.19967 13.4531C6.07467 13.4531 6.81404 13.0156 7.31061 12.3769H12.8056L24.2462 55.6894C22.9983 57.0178 22.3022 58.7711 22.2994 60.5938C22.2985 61.5398 22.4842 62.4767 22.8457 63.3509C23.2073 64.2251 23.7377 65.0195 24.4065 65.6885C25.0753 66.3576 25.8695 66.8882 26.7436 67.25C27.6177 67.6118 28.5546 67.7978 29.5006 67.7972C31.4121 67.7978 33.2455 67.0393 34.5979 65.6885C35.9504 64.3378 36.7111 62.5052 36.7128 60.5938C36.709 60.0459 36.6407 59.5004 36.5094 58.9685H48.6128C48.4833 59.5007 48.4158 60.0461 48.4115 60.5938C48.4115 64.575 51.6403 67.7972 55.6215 67.7972C59.6028 67.7972 62.825 64.575 62.825 60.5938C62.8256 58.6819 62.0668 56.8481 60.7155 55.4957C59.3643 54.1432 57.5312 53.3827 55.6194 53.3816C53.5412 53.3816 51.6819 54.2784 50.365 55.685H34.755C34.0851 54.9598 33.2725 54.3809 32.3684 53.9845C31.4642 53.5882 30.4879 53.3829 29.5006 53.3816C28.6694 53.3816 27.8862 53.5522 27.1447 53.8103L26.7465 52.3097H58.6469C59.8728 52.2846 61.0548 51.8483 62.0029 51.0707C62.9511 50.2932 63.6104 49.2195 63.875 48.0222L67.3203 30.9641C67.3784 30.6657 67.4077 30.3624 67.4078 30.0585C67.4094 28.9756 67.0085 27.9309 66.2828 27.1272C65.5571 26.3235 64.5586 25.8204 63.4812 25.7119ZM55.6237 61.2369C55.4524 61.2363 55.2881 61.1683 55.1665 61.0475C55.0449 60.9267 54.9758 60.7629 54.974 60.5916C54.9806 60.2285 55.2694 59.9397 55.6259 59.9397C55.9825 59.9397 56.2712 60.2285 56.2756 60.5894C56.2733 60.7604 56.2039 60.9236 56.0824 61.0439C55.9609 61.1642 55.7969 61.232 55.6259 61.2325L55.6237 61.2369ZM59.5175 44.8416L61.5912 42.7635L60.8956 46.2197L59.5175 44.8416ZM27.9015 25.0731L30.1656 27.3438L27.3437 30.1656L24.5153 27.3438L26.8931 24.9638L27.8994 25.0731H27.9015ZM37.7409 26.1625L38.9178 27.3438L36.0959 30.1656L33.2675 27.3438L34.7725 25.8344L37.7409 26.1625ZM21.0656 30.7913L22.9687 28.8925L25.7906 31.7188L22.9687 34.5406L21.7328 33.3091L21.0678 30.7891L21.0656 30.7913ZM20.4203 28.3413L19.7028 25.6288L21.42 27.346L20.4203 28.3413ZM47.6656 36.0938L44.8437 38.9156L42.0153 36.0938L44.8415 33.2653L47.6634 36.0916L47.6656 36.0938ZM46.3903 31.7188L49.2165 28.8925L52.0384 31.7188L49.2165 34.545L46.3881 31.7188H46.3903ZM40.4687 34.5406L37.6403 31.7188L40.4665 28.8903L43.2884 31.7166L40.4665 34.5385L40.4687 34.5406ZM38.9156 36.0938L36.0937 38.9156L33.2675 36.0938L36.0937 33.2653L38.9156 36.0938ZM31.7187 34.5406L28.8903 31.7188L31.7165 28.8903L34.5384 31.7166L31.7165 34.5385L31.7187 34.5406ZM30.1656 36.0938L27.3437 38.9156L24.5153 36.0938L27.3415 33.2653L30.1634 36.0916L30.1656 36.0938ZM22.9687 37.6403L25.7906 40.4666L24.0756 42.1794L22.8944 37.7081L22.9665 37.636L22.9687 37.6403ZM24.7231 44.6338L27.3415 42.0153L30.1634 44.8416L27.3415 47.6635L24.8697 45.1916L24.7209 44.6316L24.7231 44.6338ZM28.8925 40.4666L31.7144 37.6381L34.5428 40.4644L31.7209 43.2863L28.8947 40.4644L28.8925 40.4666ZM36.0937 42.0131L38.92 44.8394L36.0937 47.6613L33.2675 44.8394L36.0937 42.0131ZM37.6425 40.4644L40.4687 37.636L43.2906 40.4622L40.4687 43.2841L37.6425 40.4644ZM44.8394 42.011L47.6678 44.8372L44.8459 47.6591L42.0197 44.8328L44.8415 42.011H44.8394ZM46.3925 40.4622L49.2144 37.6338L52.0428 40.46L49.2209 43.2819L46.3925 40.4622ZM50.7675 36.0872L53.5894 33.2588L56.4178 36.085L53.5959 38.9069L50.7675 36.0872ZM55.1425 31.7122L57.9644 28.8838L60.7906 31.7188L57.9687 34.545L55.1403 31.7166L55.1425 31.7122ZM53.5894 30.1635L51.0628 27.6347L55.6172 28.1378L53.5915 30.1635H53.5894ZM47.67 27.3438L44.8481 30.17L42.0197 27.3438L42.654 26.7094L47.5825 27.2563L47.67 27.3438ZM31.7231 25.7906L31.3906 25.4625L31.9878 25.5281L31.7253 25.7906H31.7231ZM22.9731 25.795L21.5512 24.3731L24.1106 24.6575L22.9731 25.795ZM31.7231 46.3903L34.359 49.0263H29.0872L31.7231 46.3903ZM40.4731 46.3903L43.109 49.0285H37.8328L40.4709 46.3903H40.4731ZM49.2231 46.3903L51.8634 49.0306H46.5828L49.2209 46.3903H49.2231ZM50.7697 44.8416L53.5959 42.0131L56.4178 44.8394L53.5959 47.6613L50.7675 44.8394L50.7697 44.8416ZM55.1447 40.4666L57.9709 37.6403L60.7928 40.4622L57.9709 43.2906L55.1425 40.4688L55.1447 40.4666ZM62.3459 38.9135L59.5197 36.0916L62.3415 33.2653L63.315 34.2366L62.3744 38.8828L62.3437 38.9156L62.3459 38.9135ZM63.4397 29.0697L62.3459 30.1635L60.9022 28.7263L63.1269 28.9713C63.245 28.9888 63.3456 29.0281 63.4419 29.0675L63.4397 29.0697ZM29.505 61.2347C29.3395 61.2251 29.1839 61.1526 29.0701 61.032C28.9564 60.9114 28.893 60.7519 28.893 60.5861C28.893 60.4203 28.9564 60.2608 29.0701 60.1402C29.1839 60.0197 29.3395 59.9471 29.505 59.9375C29.6699 59.9471 29.8249 60.0194 29.9383 60.1396C30.0517 60.2597 30.1149 60.4187 30.1149 60.5839C30.1149 60.7491 30.0517 60.9081 29.9383 61.0283C29.8249 61.1484 29.6699 61.2207 29.505 61.2303V61.2347ZM58.649 49.0285H55.3306L57.9709 46.3881L60.0053 48.4225C59.5962 48.7944 59.08 49.0569 58.649 49.0285Z" fill="#4B4B4B"/>
</g>
</svg>
