<svg width="57" height="57" viewBox="0 0 57 57" fill="none" xmlns="http://www.w3.org/2000/svg">
<circle cx="28.5" cy="28.5" r="28.5" fill="#D9D9D9"/>
<path d="M38.5 30.25L40.89 34.8788L46 35.6213L42.25 39L43.2137 44L38.5 41.1875L33.7863 44L34.75 39L31 35.6213L36.25 34.8788L38.5 30.25ZM16 29H23.5V31.5H16V29ZM16 24H28.5V26.5H16V24ZM16 19H28.5V21.5H16V19Z" fill="#5C5C5C"/>
<path d="M28.5 41.5H13.5V16.5H43.5V29H46V16.5C46 15.837 45.7366 15.2011 45.2678 14.7322C44.7989 14.2634 44.163 14 43.5 14H13.5C12.837 14 12.2011 14.2634 11.7322 14.7322C11.2634 15.2011 11 15.837 11 16.5V41.5C11 42.163 11.2634 42.7989 11.7322 43.2678C12.2011 43.7366 12.837 44 13.5 44H28.5V41.5Z" fill="#5C5C5C"/>
</svg>
