<svg width="173" height="137" viewBox="0 0 173 137" fill="none" xmlns="http://www.w3.org/2000/svg">
<path d="M117.942 15.3308C117.829 14.5392 118.357 13.7986 119.142 13.647L133.09 10.9542C137.918 10.0222 142.877 9.99967 147.712 10.8877L162.911 13.6789C163.703 13.8243 164.239 14.5685 164.126 15.3653L157.583 61.4123C157.195 64.1376 155.753 66.6019 153.567 68.2745L147.682 72.777C143.439 76.0227 137.52 75.9198 133.393 72.5285L128.256 68.3071C126.226 66.6396 124.896 64.2721 124.526 61.6717L117.942 15.3308Z" fill="white" stroke="#3E7A4A" stroke-width="5"/>
<path d="M167.235 24.7305L164.381 23.2911L159.661 56.9329L165.804 52.029C166.998 51.0759 167.783 49.7035 168 48.1914L170.473 30.9392C170.839 28.3892 169.536 25.8905 167.235 24.7305Z" fill="white" stroke="#3E7A4A" stroke-width="3"/>
<path d="M114.906 26.2049L117.761 24.7655L122.48 58.4073L116.338 53.5033C115.144 52.5503 114.359 51.1778 114.142 49.6657L111.669 32.4136C111.303 29.8636 112.606 27.3649 114.906 26.2049Z" fill="white" stroke="#3E7A4A" stroke-width="3"/>
<path fill-rule="evenodd" clip-rule="evenodd" d="M140.499 76.04C139.395 76.04 138.499 76.9355 138.499 78.04V90.7242L137.826 103.301C137.825 103.307 137.825 103.312 137.825 103.317H130.171C128.135 103.317 126.485 104.968 126.485 107.004H154.499C154.499 104.968 152.849 103.317 150.813 103.317H143.47C143.47 103.303 143.469 103.289 143.468 103.275L142.628 90.7242V78.04C142.628 76.9355 141.732 76.04 140.628 76.04H140.499Z" fill="#3E7A4A"/>
<path d="M140.375 30.8565C140.674 29.9352 141.978 29.9352 142.277 30.8565L143.589 34.8943C143.991 36.1303 145.143 36.9672 146.442 36.9672H150.688C151.657 36.9672 152.059 38.2068 151.276 38.7762L147.841 41.2717C146.789 42.0357 146.349 43.3898 146.751 44.6258L148.063 48.6636C148.362 49.5849 147.308 50.3511 146.524 49.7816L143.089 47.2862C142.038 46.5222 140.614 46.5222 139.563 47.2862L136.128 49.7817C135.344 50.3511 134.29 49.5849 134.589 48.6636L135.901 44.6258C136.303 43.3898 135.863 42.0357 134.811 41.2717L131.377 38.7762C130.593 38.2068 130.996 36.9672 131.964 36.9672H136.21C137.51 36.9672 138.661 36.1303 139.063 34.8943L140.375 30.8565Z" stroke="#3E7A4A" stroke-width="2"/>
<path d="M7.94155 16.3308C7.82907 15.5392 8.35725 14.7986 9.14229 14.647L23.0901 11.9542C27.9175 11.0222 32.8766 10.9997 37.7124 11.8877L52.9114 14.6789C53.703 14.8243 54.2388 15.5685 54.1255 16.3653L47.5825 62.4123C47.1953 65.1376 45.7533 67.6019 43.567 69.2745L37.6817 73.777C33.4392 77.0227 27.5202 76.9198 23.3931 73.5285L18.2558 69.3071C16.2265 67.6396 14.8958 65.2721 14.5263 62.6717L7.94155 16.3308Z" fill="white" stroke="#3E7A4A" stroke-width="5"/>
<path d="M57.2354 25.7305L54.3812 24.2911L49.6613 57.9329L55.804 53.029C56.9978 52.0759 57.7831 50.7035 57.9999 49.1914L60.473 31.9392C60.8385 29.3892 59.5356 26.8905 57.2354 25.7305Z" fill="white" stroke="#3E7A4A" stroke-width="3"/>
<path d="M4.90626 27.2049L7.76051 25.7655L12.4804 59.4073L6.33769 54.5033C5.1439 53.5503 4.35857 52.1778 4.14181 50.6657L1.6687 33.4136C1.30316 30.8636 2.60614 28.3649 4.90626 27.2049Z" fill="white" stroke="#3E7A4A" stroke-width="3"/>
<path fill-rule="evenodd" clip-rule="evenodd" d="M30.4992 77.04C29.3946 77.04 28.4992 77.9355 28.4992 79.04V91.7242L27.8256 104.301C27.8253 104.307 27.8251 104.312 27.8248 104.317H20.171C18.1352 104.317 16.4848 105.968 16.4848 108.004H44.4994C44.4994 105.968 42.8491 104.317 40.8133 104.317H33.4702C33.4695 104.303 33.4687 104.289 33.4678 104.275L32.6276 91.7242V79.04C32.6276 77.9355 31.7322 77.04 30.6276 77.04H30.4992Z" fill="#3E7A4A"/>
<path d="M30.375 31.8565C30.6744 30.9352 31.9778 30.9352 32.2771 31.8565L33.5891 35.8943C33.9907 37.1303 35.1426 37.9672 36.4422 37.9672H40.6878C41.6565 37.9672 42.0593 39.2068 41.2756 39.7762L37.8409 42.2717C36.7894 43.0357 36.3494 44.3898 36.751 45.6258L38.063 49.6636C38.3624 50.5849 37.3079 51.3511 36.5242 50.7816L33.0894 48.2862C32.038 47.5222 30.6142 47.5222 29.5627 48.2862L26.128 50.7817C25.3442 51.3511 24.2898 50.5849 24.5891 49.6636L25.9011 45.6258C26.3027 44.3898 25.8627 43.0357 24.8113 42.2717L21.3765 39.7762C20.5928 39.2068 20.9956 37.9672 21.9643 37.9672H26.2099C27.5096 37.9672 28.6614 37.1303 29.063 35.8943L30.375 31.8565Z" stroke="#3E7A4A" stroke-width="2"/>
<path d="M53.3427 10.0823C53.2302 9.29073 53.7584 8.55006 54.5434 8.39849L77.5633 3.95423C82.3908 3.02222 87.3499 2.99967 92.1856 3.88773L116.922 8.43044C117.714 8.57581 118.249 9.31997 118.136 10.1168L108.802 75.8087C108.415 78.5341 106.973 80.9983 104.786 82.671L92.155 92.3344C87.9124 95.5801 81.9935 95.4772 77.8664 92.0859L66.4483 82.7035C64.419 81.036 63.0884 78.6686 62.7189 76.0682L53.3427 10.0823Z" fill="white" stroke="#3E7A4A" stroke-width="5"/>
<path d="M122.652 24.7422L117.408 22.0978L111.006 67.7308L120.001 60.5501C121.194 59.597 121.98 58.2245 122.196 56.7124L125.889 30.9509C126.255 28.4009 124.952 25.9022 122.652 24.7422Z" fill="white" stroke="#3E7A4A" stroke-width="3"/>
<path d="M48.9266 26.7422L54.1702 24.0978L60.5724 69.7308L51.5778 62.5501C50.384 61.597 49.5987 60.2245 49.3819 58.7124L45.689 32.9509C45.3234 30.4009 46.6264 27.9022 48.9266 26.7422Z" fill="white" stroke="#3E7A4A" stroke-width="3"/>
<path fill-rule="evenodd" clip-rule="evenodd" d="M84.3008 95C83.1962 95 82.3008 95.8954 82.3008 97V114.918L81.386 132H70.0042C67.795 132 66.0042 133.791 66.0042 136V137H104.004V136C104.004 133.791 102.213 132 100.004 132H89.0443L87.9008 114.918V97C87.9008 95.8954 87.0054 95 85.9008 95H84.3008Z" fill="#3E7A4A"/>
<path d="M85.1843 30.1631C85.4836 29.2418 86.787 29.2418 87.0864 30.1631L89.704 38.2193C90.1056 39.4554 91.2575 40.2923 92.5572 40.2923H101.028C101.997 40.2923 102.399 41.5319 101.616 42.1013L94.7627 47.0803C93.7113 47.8442 93.2713 49.1983 93.6729 50.4344L96.2905 58.4906C96.5899 59.4119 95.5354 60.178 94.7517 59.6086L87.8987 54.6296C86.8472 53.8657 85.4234 53.8657 84.372 54.6296L77.519 59.6086C76.7352 60.178 75.6808 59.4119 75.9801 58.4906L78.5977 50.4344C78.9994 49.1983 78.5594 47.8442 77.5079 47.0803L70.6549 42.1013C69.8712 41.5319 70.274 40.2923 71.2427 40.2923H79.7135C81.0132 40.2923 82.165 39.4554 82.5666 38.2193L85.1843 30.1631Z" stroke="#3E7A4A" stroke-width="2"/>
</svg>
