<svg width="36" height="36" viewBox="0 0 36 36" fill="none" xmlns="http://www.w3.org/2000/svg">
<rect x="5.5" y="3.5" width="25" height="29" rx="0.5" stroke="#5C5C5C"/>
<rect x="7.5" y="5.5" width="21" height="25" rx="0.5" stroke="#5C5C5C"/>
<path d="M11.0718 22L18 10L24.9282 22H11.0718ZM25.1014 22.3C25.1013 22.2998 25.1012 22.2996 25.1011 22.2994L25.1014 22.3Z" stroke="#5C5C5C"/>
<rect x="13" y="24" width="10" height="1" rx="0.3" fill="#5C5C5C"/>
<path d="M17.8653 18.3089C17.8705 18.2504 17.8244 18.2 17.7657 18.2H16.748C16.6845 18.2 16.6371 18.1417 16.6501 18.0796L17.4834 14.0796C17.4931 14.0332 17.5339 14 17.5813 14H18.9947C19.0604 14 19.1083 14.0624 19.0913 14.1259L18.4087 16.6741C18.3917 16.7376 18.4396 16.8 18.5053 16.8H19.4666C19.5401 16.8 19.5885 16.8766 19.5569 16.943L17.8644 20.4972C17.8165 20.5979 17.6646 20.5564 17.6745 20.4453L17.8653 18.3089Z" fill="#5C5C5C"/>
</svg>
