<svg width="36" height="36" viewBox="0 0 36 36" fill="none" xmlns="http://www.w3.org/2000/svg">
<g clip-path="url(#clip0_76_10)">
<path d="M30.2741 29.1111H8.69193C7.03507 29.1111 5.69193 27.768 5.69193 26.1111V9.88888C5.69193 8.23203 7.03507 6.88889 8.69193 6.88889H30.2741" stroke="#5C5C5C"/>
<path d="M30.7741 5.72223H32C33.3807 5.72223 34.5 6.84152 34.5 8.22223V27.7778C34.5 29.1585 33.3807 30.2778 32 30.2778H30.7741V5.72223Z" stroke="#5C5C5C"/>
<path d="M24.5675 6.88889V6C24.5675 4.34314 23.2244 3 21.5675 3L14.3985 3C12.7417 3 11.3985 4.34314 11.3985 6V6.88889" stroke="#5C5C5C"/>
<path d="M10.0816 29.1111L10.0301 29.3394C9.60652 31.2155 11.033 33 12.9564 33H23.9734C25.9891 33 27.4089 31.0203 26.7624 29.1111V29.1111" stroke="#5C5C5C"/>
<path d="M5.69193 25.7778V25.7778C4.96462 25.7778 4.37502 25.1882 4.37502 24.4609V10.9836C4.37502 10.2563 4.96462 9.66666 5.69193 9.66666V9.66666" stroke="#5C5C5C"/>
<path d="M4.37316 18.5555H1C0.447715 18.5555 0 18.1078 0 17.5555L0 16.7778C0 16.2255 0.447929 15.7778 1.00021 15.7778C2.14799 15.7778 3.02775 15.7778 4.37316 15.7778" stroke="#5C5C5C"/>
<rect x="10.5206" y="10.7778" width="16.2418" height="0.555556" fill="#5C5C5C"/>
<rect x="10.5206" y="12.4445" width="16.2418" height="0.555556" fill="#5C5C5C"/>
<rect x="10.5206" y="14.1111" width="16.2418" height="0.555556" fill="#5C5C5C"/>
<rect x="10.5206" y="15.7778" width="16.2418" height="0.555556" fill="#5C5C5C"/>
<rect x="10.5206" y="17.4445" width="16.2418" height="0.555556" fill="#5C5C5C"/>
<rect x="10.5206" y="19.1111" width="16.2418" height="0.555556" fill="#5C5C5C"/>
<rect x="10.5206" y="20.7778" width="16.2418" height="0.555556" fill="#5C5C5C"/>
<rect x="10.5206" y="22.4445" width="16.2418" height="0.555556" fill="#5C5C5C"/>
<rect x="10.5206" y="24.1111" width="16.2418" height="0.555556" fill="#5C5C5C"/>
</g>
<defs>
<clipPath id="clip0_76_10">
<rect width="36" height="36" fill="white"/>
</clipPath>
</defs>
</svg>
