<svg width="36" height="36" viewBox="0 0 36 36" fill="none" xmlns="http://www.w3.org/2000/svg">
<rect x="3.5" y="3.5" width="29" height="29" rx="2.5" stroke="#5C5C5C"/>
<path d="M9.16116 26.8388C11.5054 29.183 14.6848 30.5 18 30.5C21.3152 30.5 24.4946 29.183 26.8388 26.8388C29.183 24.4946 30.5 21.3152 30.5 18C30.5 14.6848 29.183 11.5054 26.8388 9.16117C24.4946 6.81696 21.3152 5.5 18 5.5C14.6848 5.5 11.5054 6.81696 9.16116 9.16116C6.81696 11.5054 5.5 14.6848 5.5 18C5.5 21.3152 6.81696 24.4946 9.16116 26.8388ZM27.7227 27.7227C25.1441 30.3013 21.6467 31.75 18 31.75C14.3533 31.75 10.8559 30.3013 8.27728 27.7227C5.69866 25.1441 4.25 21.6467 4.25 18C4.25 14.3533 5.69866 10.8559 8.27728 8.27728C10.8559 5.69866 14.3533 4.25 18 4.25C21.6467 4.25 25.1441 5.69866 27.7227 8.27728C30.3013 10.8559 31.75 14.3533 31.75 18C31.75 21.6467 30.3013 25.1441 27.7227 27.7227Z" stroke="#5C5C5C" stroke-width="0.5"/>
<path d="M27.8098 18.9846C27.5802 18.087 27.1473 17.2604 26.5478 16.5743C25.9483 15.8883 25.1997 15.3631 24.3652 15.043C23.5308 14.7229 22.6348 14.6173 21.7531 14.7352C20.8714 14.853 20.0297 15.1909 19.2991 15.7201C19.1562 15.6236 19.0052 15.5408 18.8478 15.4729L20.5569 8.34194C20.5771 8.25791 20.5715 8.16938 20.541 8.08884C20.5104 8.00829 20.4565 7.9398 20.3867 7.89302C19.7484 7.47227 19.0347 7.1922 18.2892 7.06997C17.5437 6.94775 16.7822 6.98594 16.0513 7.18222C15.3204 7.3785 14.6356 7.72872 14.0388 8.21142C13.4421 8.69412 12.9459 9.29913 12.5807 9.98936C12.2155 10.6796 11.9891 11.4405 11.9152 12.2254C11.8413 13.0104 11.9216 13.8028 12.1511 14.5542C12.3806 15.3056 12.7545 16.0001 13.2499 16.595C13.7452 17.19 14.3516 17.673 15.0319 18.0144V18.1571C15.0319 18.2872 15.0405 18.4172 15.0576 18.5461L8.29363 20.5652C8.2137 20.5887 8.14289 20.6379 8.09121 20.7059C8.03952 20.7738 8.00959 20.857 8.00565 20.9437C7.94865 22.2624 8.32422 23.5618 9.07019 24.6269C9.81616 25.6919 10.8878 26.4588 12.1076 26.8004C12.5785 26.9325 13.0639 26.9996 13.5514 27C14.3165 26.9978 15.0728 26.8302 15.773 26.5078C16.4731 26.1854 17.1019 25.7151 17.6198 25.1265C18.1377 24.538 18.5336 23.8438 18.7826 23.0877C19.0315 22.3316 19.1282 21.5298 19.0665 20.7327C19.2175 20.6512 19.3609 20.5553 19.4951 20.4462L24.551 25.5602C24.6254 25.6357 24.7253 25.6777 24.8291 25.677C24.8924 25.6767 24.9548 25.6608 25.0112 25.6305C26.1326 25.0221 27.0214 24.0315 27.5304 22.8228C28.0394 21.6141 28.138 20.2599 27.8098 18.9846ZM17.8028 20.2259C17.4114 20.2259 17.0287 20.1045 16.7032 19.8772C16.3777 19.6499 16.1241 19.3268 15.9742 18.9488C15.8244 18.5708 15.7853 18.1548 15.8616 17.7535C15.938 17.3522 16.1265 16.9836 16.4033 16.6943C16.6801 16.405 17.0328 16.208 17.4167 16.1281C17.8006 16.0483 18.1986 16.0893 18.5602 16.2459C18.9219 16.4024 19.231 16.6676 19.4485 17.0078C19.666 17.348 19.782 17.748 19.782 18.1571C19.782 18.7058 19.5735 19.232 19.2023 19.62C18.8312 20.0079 18.3277 20.2259 17.8028 20.2259ZM12.6568 12.7784C12.6567 11.9128 12.873 11.0622 13.2843 10.311C13.6957 9.55975 14.2878 8.93398 15.002 8.49573C15.7161 8.05749 16.5274 7.822 17.3555 7.81262C18.1836 7.80325 18.9996 8.02031 19.7227 8.44228L18.0849 15.2754C17.9918 15.266 17.8978 15.2609 17.8028 15.2609C17.2331 15.2617 16.6774 15.4456 16.2111 15.7878C15.7448 16.1299 15.3905 16.6137 15.1962 17.1734C14.4286 16.7539 13.786 16.1222 13.3382 15.3473C12.8904 14.5723 12.6548 13.6837 12.6568 12.7784ZM15.9226 25.5012C15.2055 25.934 14.3927 26.1634 13.5646 26.1666C12.7366 26.1699 11.9222 25.9468 11.2021 25.5195C10.482 25.0923 9.88121 24.4757 9.4594 23.7309C9.03758 22.9862 8.80935 22.1391 8.79734 21.2737L15.2793 19.3394C15.4972 19.8489 15.8514 20.2816 16.299 20.5857C16.7467 20.8898 17.2689 21.0522 17.8028 21.0534C17.9667 21.0529 18.1303 21.0377 18.2917 21.0079C18.3277 21.9117 18.1259 22.8085 17.7082 23.6008C17.2905 24.393 16.6729 25.0503 15.9226 25.5012ZM26.5708 22.9711C26.165 23.7055 25.5857 24.3187 24.8884 24.7523L20.0393 19.8525C20.4025 19.3293 20.5872 18.6939 20.5639 18.048C20.5406 17.4021 20.3106 16.7831 19.9107 16.2901C20.8085 15.6962 21.8709 15.4341 22.928 15.5457C23.9851 15.6572 24.9759 16.136 25.742 16.9055C26.5081 17.6749 27.0053 18.6906 27.1541 19.7902C27.3029 20.8898 27.0947 22.0098 26.5629 22.9711H26.5708Z" fill="#5C5C5C"/>
</svg>
