<svg width="36" height="36" viewBox="0 0 36 36" fill="none" xmlns="http://www.w3.org/2000/svg">
<path d="M18 24.48C14.4 24.48 11.52 21.6 11.52 18C11.52 14.4 14.4 11.52 18 11.52C21.6 11.52 24.48 14.4 24.48 18C24.48 21.6 21.6 24.48 18 24.48ZM18 12.96C15.192 12.96 12.96 15.192 12.96 18C12.96 20.808 15.192 23.04 18 23.04C20.808 23.04 23.04 20.808 23.04 18C23.04 15.192 20.808 12.96 18 12.96Z" fill="#5C5C5C"/>
<path d="M19.944 31.68H16.056L14.976 28.368C14.256 28.152 13.536 27.864 12.888 27.504L9.72 29.088L6.984 26.352L8.568 23.184C8.208 22.536 7.92 21.816 7.704 21.096L4.32 19.944V16.056L7.632 14.976C7.848 14.256 8.136 13.536 8.496 12.888L6.912 9.72001L9.648 6.98401L12.816 8.56801C13.464 8.20801 14.184 7.92001 14.904 7.70401L16.056 4.32001H19.944L21.024 7.63201C21.744 7.84801 22.464 8.13601 23.112 8.49601L26.28 6.91201L29.016 9.64801L27.432 12.816C27.792 13.464 28.08 14.184 28.296 14.904L31.608 15.984V19.872L28.296 20.952C28.08 21.672 27.792 22.392 27.432 23.04L29.016 26.208L26.28 28.944L23.112 27.36C22.464 27.72 21.744 28.008 21.024 28.224L19.944 31.68ZM17.064 30.24H18.936L19.944 27.144L20.304 27.072C21.168 26.856 21.96 26.496 22.752 26.064L23.112 25.848L25.992 27.288L27.288 25.992L25.848 23.112L26.064 22.752C26.496 22.032 26.856 21.168 27.072 20.304L27.144 19.944L30.24 18.936V17.064L27.144 16.056L27.072 15.696C26.856 14.832 26.496 14.04 26.064 13.248L25.848 12.888L27.288 10.008L25.992 8.71201L23.112 10.152L22.752 9.93601C21.96 9.50401 21.168 9.14401 20.304 8.92801L19.944 8.85601L18.936 5.76001H17.064L16.056 8.85601L15.696 8.92801C14.832 9.14401 14.04 9.50401 13.248 9.93601L12.888 10.152L10.008 8.71201L8.712 10.008L10.152 12.888L9.936 13.248C9.504 13.968 9.144 14.832 8.928 15.696L8.856 16.056L5.76 17.064V18.936L8.856 19.944L8.928 20.304C9.144 21.168 9.504 21.96 9.936 22.752L10.152 23.112L8.712 25.992L10.008 27.288L12.888 25.848L13.248 26.064C14.04 26.496 14.832 26.856 15.696 27.072L16.056 27.144L17.064 30.24Z" fill="#5C5C5C"/>
</svg>
