<svg width="60" height="60" viewBox="0 0 60 60" fill="none" xmlns="http://www.w3.org/2000/svg">
<path d="M36.2119 13.0668C35.1712 13.0743 34.1381 13.1249 33.0469 13.4174C31.8581 13.7401 30.7301 14.255 29.7075 14.9418C28.2712 14.098 26.88 13.4043 25.5469 13.2412C23.8913 13.0368 22.3538 13.1474 20.5669 13.1849C18.4481 13.228 17.0662 14.3099 14.8238 15.1762C12.5831 16.0387 9.6975 16.8749 5.625 16.8749H3.75V34.9218L4.80562 35.4487L8.26125 37.1493L20.5669 50.8593L20.625 50.9174C22.0312 52.3087 23.9288 52.6537 25.605 52.558C27.2831 52.4643 28.8581 51.973 30.1163 51.2118C32.8856 49.5412 40.4287 44.2968 40.4287 44.2968L40.605 44.1787L40.7231 44.0624C41.6156 43.1755 42.0638 42.0937 42.3638 40.9574L49.5694 37.3237L54.96 35.5087L56.25 35.0962V16.8749H54.375C51.2232 16.8965 48.0978 16.2989 45.1763 15.1162C42.9338 14.2405 41.5725 13.1699 39.4313 13.1249C38.2875 13.1024 37.2506 13.0593 36.2119 13.0668ZM36.2681 16.8168C37.1119 16.8093 38.0869 16.8543 39.3169 16.8749C39.5137 16.8824 41.3156 17.6512 43.8281 18.6337C45.9525 19.468 48.9038 20.2087 52.5 20.4487V32.4018L48.1631 33.868H48.0469L47.9287 33.9243L42.2475 36.7968C41.9459 35.9267 41.4671 35.1286 40.8412 34.453L40.7231 34.2768L32.7544 24.493L31.5825 23.0268L30.1163 24.1987L25.0781 28.3012C23.3869 29.473 22.0163 29.1355 20.625 28.4774C20.2219 28.2862 20.2444 28.228 19.9219 28.0087L28.4775 20.9174L28.5938 20.8012C31.1344 18.2812 32.6963 17.4093 34.0425 17.0512C34.7175 16.8674 35.4263 16.8243 36.2681 16.8168ZM23.205 16.8749C23.8306 16.8513 24.4571 16.8707 25.08 16.933C25.5713 16.9912 26.1281 17.4093 26.6044 17.578C26.4131 17.7543 26.2744 17.8555 26.0756 18.0468L25.9594 18.1649L15.705 26.6587L14.1225 27.9487L15.5287 29.413C15.5287 29.413 16.8844 30.8793 18.9863 31.8749C21.0881 32.8705 24.3337 33.4349 27.2475 31.4062L27.3656 31.288L30.9975 28.3012L37.9125 36.7968L37.9706 36.9149L38.0287 36.9712C39.2663 38.1955 39.2381 40.1212 38.0287 41.368C38.0137 41.3812 38.0438 41.4112 38.0287 41.4243C38.0137 41.4337 37.7663 41.5799 37.7362 41.6024L35.2744 38.2612L32.2275 40.4887L34.6312 43.7099C33.6562 44.3699 33.2175 44.7149 32.1694 45.4105L29.6513 42.0112L26.6025 44.2387L29.0063 47.4599C28.7925 47.5912 28.3537 47.8855 28.185 47.9887C27.5925 48.3468 26.4487 48.7499 25.4306 48.808C24.4725 48.8605 23.7394 48.6393 23.3813 48.3393L23.3231 48.2812L10.7831 34.3949L10.5487 34.1005L7.5 32.578V20.4487C11.0812 20.2143 14.055 19.5037 16.1719 18.6918C18.6769 17.7318 20.4656 16.9405 20.6831 16.933L23.2031 16.8749H23.205Z" fill="#3E7A4A"/>
</svg>
