<svg width="435" height="100" viewBox="0 0 435 100" fill="none" xmlns="http://www.w3.org/2000/svg">
<rect y="8" width="75" height="75" rx="37.5" fill="#F2EA34"/>
<path d="M33.0357 61.5714H10.7143L26.3393 8H55.3572L41.9643 43.7143H64.2857L28.5714 97.2857L33.0357 61.5714Z" fill="white" stroke="#6A6A6A" stroke-width="4.16667" stroke-linejoin="round"/>
<path d="M94.71 82V68.13H96.363V75.92C96.363 76.376 96.3503 76.8637 96.325 77.383C96.3123 77.8897 96.2933 78.3773 96.268 78.846C96.2427 79.302 96.2173 79.6883 96.192 80.005L100.41 68.13H102.69V82H101.037V74.21C101.037 73.7413 101.043 73.2537 101.056 72.747C101.081 72.2277 101.107 71.74 101.132 71.284C101.17 70.8153 101.202 70.429 101.227 70.125L96.99 82H94.71ZM105.799 82V71.55H107.509V75.901H111.917V71.55H113.627V82H111.917V77.459H107.509V82H105.799ZM119.87 82V73.051H116.07V71.55H125.38V73.051H121.58V82H119.87ZM131.738 82.19C130.914 82.19 130.192 82.0253 129.572 81.696C128.964 81.3667 128.489 80.9043 128.147 80.309C127.817 79.701 127.653 78.998 127.653 78.2V75.35C127.653 74.5393 127.817 73.8363 128.147 73.241C128.489 72.6457 128.964 72.1833 129.572 71.854C130.192 71.5247 130.914 71.36 131.738 71.36C132.561 71.36 133.277 71.5247 133.885 71.854C134.505 72.1833 134.98 72.6457 135.31 73.241C135.652 73.8363 135.823 74.5393 135.823 75.35V77.193H129.325V78.2C129.325 79.0233 129.534 79.6567 129.952 80.1C130.37 80.5307 130.965 80.746 131.738 80.746C132.396 80.746 132.928 80.632 133.334 80.404C133.739 80.1633 133.986 79.8087 134.075 79.34H135.785C135.671 80.214 135.24 80.9107 134.493 81.43C133.758 81.9367 132.84 82.19 131.738 82.19ZM134.151 76.053V75.35C134.151 74.5267 133.942 73.8933 133.524 73.45C133.118 73.0067 132.523 72.785 131.738 72.785C130.965 72.785 130.37 73.0067 129.952 73.45C129.534 73.8933 129.325 74.5267 129.325 75.35V75.901H134.284L134.151 76.053ZM138.798 85.42V71.55H140.508V73.545H140.85L140.508 73.944C140.508 73.146 140.768 72.519 141.287 72.063C141.819 71.5943 142.516 71.36 143.377 71.36C144.429 71.36 145.265 71.7083 145.885 72.405C146.519 73.089 146.835 74.0327 146.835 75.236V78.295C146.835 79.093 146.69 79.7833 146.398 80.366C146.12 80.9487 145.721 81.3983 145.201 81.715C144.695 82.0317 144.087 82.19 143.377 82.19C142.529 82.19 141.838 81.9557 141.306 81.487C140.774 81.0183 140.508 80.3913 140.508 79.606L140.85 80.005H140.47L140.508 82.38V85.42H138.798ZM142.807 80.708C143.529 80.708 144.093 80.4927 144.498 80.062C144.916 79.6313 145.125 79.0107 145.125 78.2V75.35C145.125 74.5393 144.916 73.9187 144.498 73.488C144.093 73.0573 143.529 72.842 142.807 72.842C142.111 72.842 141.553 73.0637 141.135 73.507C140.717 73.9503 140.508 74.5647 140.508 75.35V78.2C140.508 78.9853 140.717 79.5997 141.135 80.043C141.553 80.4863 142.111 80.708 142.807 80.708ZM149.849 82V71.55H151.559V75.901H155.967V71.55H157.677V82H155.967V77.459H151.559V82H149.849ZM164.775 82.19C163.952 82.19 163.23 82.0253 162.609 81.696C162.001 81.3667 161.526 80.9043 161.184 80.309C160.855 79.701 160.69 78.998 160.69 78.2V75.35C160.69 74.5393 160.855 73.8363 161.184 73.241C161.526 72.6457 162.001 72.1833 162.609 71.854C163.23 71.5247 163.952 71.36 164.775 71.36C165.599 71.36 166.314 71.5247 166.922 71.854C167.543 72.1833 168.018 72.6457 168.347 73.241C168.689 73.8363 168.86 74.5393 168.86 75.35V77.193H162.362V78.2C162.362 79.0233 162.571 79.6567 162.989 80.1C163.407 80.5307 164.003 80.746 164.775 80.746C165.434 80.746 165.966 80.632 166.371 80.404C166.777 80.1633 167.024 79.8087 167.112 79.34H168.822C168.708 80.214 168.278 80.9107 167.53 81.43C166.796 81.9367 165.877 82.19 164.775 82.19ZM167.188 76.053V75.35C167.188 74.5267 166.979 73.8933 166.561 73.45C166.156 73.0067 165.561 72.785 164.775 72.785C164.003 72.785 163.407 73.0067 162.989 73.45C162.571 73.8933 162.362 74.5267 162.362 75.35V75.901H167.321L167.188 76.053ZM174.933 82V73.051H171.133V71.55H180.443V73.051H176.643V82H174.933ZM183.761 76.49V74.97H189.841V76.49H183.761ZM193.557 82V71.55H195.875L197.243 75.559C197.383 75.9643 197.509 76.3697 197.623 76.775C197.737 77.1677 197.82 77.4717 197.87 77.687C197.921 77.4717 197.997 77.1677 198.098 76.775C198.212 76.3697 198.333 75.958 198.459 75.54L199.751 71.55H202.069V82H200.416V80.385C200.416 79.815 200.423 79.1943 200.435 78.523C200.448 77.8517 200.461 77.174 200.473 76.49C200.499 75.806 200.524 75.16 200.549 74.552C200.575 73.9313 200.594 73.3867 200.606 72.918L198.744 78.865H196.939L195.058 72.956C195.084 73.526 195.103 74.2353 195.115 75.084C195.141 75.9327 195.16 76.8193 195.172 77.744C195.198 78.6687 195.21 79.549 195.21 80.385V82H193.557ZM207.914 82.19C206.812 82.19 205.944 81.9113 205.311 81.354C204.677 80.784 204.361 80.0177 204.361 79.055C204.361 78.0797 204.677 77.3133 205.311 76.756C205.944 76.1987 206.799 75.92 207.876 75.92H211.106V74.875C211.106 74.229 210.909 73.735 210.517 73.393C210.137 73.0383 209.592 72.861 208.883 72.861C208.262 72.861 207.743 72.994 207.325 73.26C206.907 73.5133 206.666 73.8617 206.603 74.305H204.893C205.007 73.4057 205.431 72.69 206.166 72.158C206.9 71.626 207.819 71.36 208.921 71.36C210.124 71.36 211.074 71.6703 211.771 72.291C212.467 72.9117 212.816 73.754 212.816 74.818V82H211.144V80.005H210.859L211.144 79.72C211.144 80.48 210.846 81.0817 210.251 81.525C209.668 81.9683 208.889 82.19 207.914 82.19ZM208.332 80.841C209.142 80.841 209.807 80.6383 210.327 80.233C210.846 79.8277 211.106 79.3083 211.106 78.675V77.193H207.914C207.344 77.193 206.894 77.3513 206.565 77.668C206.235 77.9847 206.071 78.4153 206.071 78.96C206.071 79.5427 206.267 80.005 206.66 80.347C207.065 80.6763 207.622 80.841 208.332 80.841ZM216.608 82V71.55H224.113V73.108H218.318V82H216.608ZM229.939 82.19C228.837 82.19 227.969 81.9113 227.336 81.354C226.703 80.784 226.386 80.0177 226.386 79.055C226.386 78.0797 226.703 77.3133 227.336 76.756C227.969 76.1987 228.824 75.92 229.901 75.92H233.131V74.875C233.131 74.229 232.935 73.735 232.542 73.393C232.162 73.0383 231.617 72.861 230.908 72.861C230.287 72.861 229.768 72.994 229.35 73.26C228.932 73.5133 228.691 73.8617 228.628 74.305H226.918C227.032 73.4057 227.456 72.69 228.191 72.158C228.926 71.626 229.844 71.36 230.946 71.36C232.149 71.36 233.099 71.6703 233.796 72.291C234.493 72.9117 234.841 73.754 234.841 74.818V82H233.169V80.005H232.884L233.169 79.72C233.169 80.48 232.871 81.0817 232.276 81.525C231.693 81.9683 230.914 82.19 229.939 82.19ZM230.357 80.841C231.168 80.841 231.833 80.6383 232.352 80.233C232.871 79.8277 233.131 79.3083 233.131 78.675V77.193H229.939C229.369 77.193 228.919 77.3513 228.59 77.668C228.261 77.9847 228.096 78.4153 228.096 78.96C228.096 79.5427 228.292 80.005 228.685 80.347C229.09 80.6763 229.648 80.841 230.357 80.841ZM241.37 82.133C240.268 82.133 239.362 81.8987 238.653 81.43C237.956 80.9613 237.538 80.328 237.399 79.53H239.204C239.292 79.8467 239.527 80.1063 239.907 80.309C240.299 80.5117 240.787 80.613 241.37 80.613H242.263C242.883 80.613 243.365 80.4673 243.707 80.176C244.061 79.8847 244.239 79.5047 244.239 79.036C244.239 78.5293 244.068 78.1303 243.726 77.839C243.396 77.5477 242.909 77.402 242.263 77.402H239.964V75.92H242.206C242.788 75.92 243.232 75.7807 243.536 75.502C243.84 75.2233 243.992 74.856 243.992 74.4C243.992 74.0833 243.922 73.8173 243.783 73.602C243.656 73.3867 243.46 73.222 243.194 73.108C242.928 72.994 242.605 72.937 242.225 72.937H241.275C240.768 72.937 240.331 73.051 239.964 73.279C239.596 73.507 239.375 73.7857 239.299 74.115H237.494C237.62 73.3297 238.032 72.6837 238.729 72.177C239.425 71.6703 240.274 71.417 241.275 71.417H242.225C242.972 71.417 243.612 71.5373 244.144 71.778C244.676 72.006 245.081 72.3353 245.36 72.766C245.651 73.1967 245.797 73.7097 245.797 74.305C245.797 74.9257 245.594 75.4387 245.189 75.844C244.783 76.2367 244.213 76.4583 243.479 76.509V76.585C244.378 76.6483 245.03 76.889 245.436 77.307C245.841 77.725 246.044 78.3267 246.044 79.112C246.044 80.0367 245.702 80.7713 245.018 81.316C244.334 81.8607 243.415 82.133 242.263 82.133H241.37ZM248.962 82V71.55H250.596V77.25C250.596 77.6173 250.583 78.0037 250.558 78.409C250.545 78.8143 250.52 79.2007 250.482 79.568C250.457 79.9227 250.425 80.2267 250.387 80.48L254.605 71.55H256.79V82H255.156V76.3C255.156 75.9327 255.162 75.5463 255.175 75.141C255.2 74.7357 255.232 74.3493 255.27 73.982C255.308 73.602 255.34 73.2917 255.365 73.051L251.147 82H248.962ZM259.975 82V71.55H261.685V75.901H266.093V71.55H267.803V82H266.093V77.459H261.685V82H259.975ZM285.838 82.19C284.634 82.19 283.672 81.867 282.95 81.221C282.228 80.575 281.848 79.6947 281.81 78.58H283.52C283.558 79.2387 283.779 79.7517 284.185 80.119C284.59 80.4863 285.141 80.67 285.838 80.67C286.585 80.67 287.161 80.4547 287.567 80.024C287.985 79.5933 288.194 78.9853 288.194 78.2V77.44H284.489V75.92H288.194V75.331C288.194 74.5457 287.985 73.944 287.567 73.526C287.161 73.0953 286.585 72.88 285.838 72.88C285.141 72.88 284.59 73.0637 284.185 73.431C283.779 73.7857 283.558 74.2987 283.52 74.97H281.81C281.848 73.8553 282.228 72.975 282.95 72.329C283.672 71.683 284.634 71.36 285.838 71.36C286.686 71.36 287.408 71.5183 288.004 71.835C288.612 72.1517 289.08 72.6077 289.41 73.203C289.739 73.7983 289.904 74.514 289.904 75.35V78.2C289.904 79.0233 289.739 79.739 289.41 80.347C289.08 80.9423 288.612 81.3983 288.004 81.715C287.408 82.0317 286.686 82.19 285.838 82.19ZM291.701 82.133V80.537H292.043C292.626 80.537 293.031 80.309 293.259 79.853C293.5 79.397 293.627 78.58 293.639 77.402L293.753 71.55H300.84V82H299.13V73.108H295.444L295.349 77.478C295.324 78.58 295.197 79.473 294.969 80.157C294.754 80.841 294.412 81.3413 293.943 81.658C293.487 81.9747 292.886 82.133 292.138 82.133H291.701ZM307.939 82.19C307.116 82.19 306.394 82.0253 305.773 81.696C305.165 81.3667 304.69 80.9043 304.348 80.309C304.019 79.701 303.854 78.998 303.854 78.2V75.35C303.854 74.5393 304.019 73.8363 304.348 73.241C304.69 72.6457 305.165 72.1833 305.773 71.854C306.394 71.5247 307.116 71.36 307.939 71.36C308.762 71.36 309.478 71.5247 310.086 71.854C310.707 72.1833 311.182 72.6457 311.511 73.241C311.853 73.8363 312.024 74.5393 312.024 75.35V77.193H305.526V78.2C305.526 79.0233 305.735 79.6567 306.153 80.1C306.571 80.5307 307.166 80.746 307.939 80.746C308.598 80.746 309.13 80.632 309.535 80.404C309.94 80.1633 310.187 79.8087 310.276 79.34H311.986C311.872 80.214 311.441 80.9107 310.694 81.43C309.959 81.9367 309.041 82.19 307.939 82.19ZM310.352 76.053V75.35C310.352 74.5267 310.143 73.8933 309.725 73.45C309.32 73.0067 308.724 72.785 307.939 72.785C307.166 72.785 306.571 73.0067 306.153 73.45C305.735 73.8933 305.526 74.5267 305.526 75.35V75.901H310.485L310.352 76.053ZM315.095 82V71.55H316.805V75.863H318.591L321.631 71.55H323.588L320.073 76.528L323.645 82H321.65L318.61 77.345H316.805V82H315.095ZM329.109 82V73.051H325.309V71.55H334.619V73.051H330.819V82H329.109ZM337.025 85.42V71.55H338.735V73.545H339.077L338.735 73.944C338.735 73.146 338.994 72.519 339.514 72.063C340.046 71.5943 340.742 71.36 341.604 71.36C342.655 71.36 343.491 71.7083 344.112 72.405C344.745 73.089 345.062 74.0327 345.062 75.236V78.295C345.062 79.093 344.916 79.7833 344.625 80.366C344.346 80.9487 343.947 81.3983 343.428 81.715C342.921 82.0317 342.313 82.19 341.604 82.19C340.755 82.19 340.065 81.9557 339.533 81.487C339.001 81.0183 338.735 80.3913 338.735 79.606L339.077 80.005H338.697L338.735 82.38V85.42H337.025ZM341.034 80.708C341.756 80.708 342.319 80.4927 342.725 80.062C343.143 79.6313 343.352 79.0107 343.352 78.2V75.35C343.352 74.5393 343.143 73.9187 342.725 73.488C342.319 73.0573 341.756 72.842 341.034 72.842C340.337 72.842 339.78 73.0637 339.362 73.507C338.944 73.9503 338.735 74.5647 338.735 75.35V78.2C338.735 78.9853 338.944 79.5997 339.362 80.043C339.78 80.4863 340.337 80.708 341.034 80.708ZM351.989 82.152C351.153 82.152 350.431 81.9937 349.823 81.677C349.215 81.3603 348.74 80.9043 348.398 80.309C348.069 79.701 347.904 78.9853 347.904 78.162V75.388C347.904 74.552 348.069 73.8363 348.398 73.241C348.74 72.6457 349.215 72.1897 349.823 71.873C350.431 71.5563 351.153 71.398 351.989 71.398C352.825 71.398 353.547 71.5563 354.155 71.873C354.763 72.1897 355.232 72.6457 355.561 73.241C355.903 73.8363 356.074 74.5457 356.074 75.369V78.162C356.074 78.9853 355.903 79.701 355.561 80.309C355.232 80.9043 354.763 81.3603 354.155 81.677C353.547 81.9937 352.825 82.152 351.989 82.152ZM351.989 80.632C352.737 80.632 353.319 80.423 353.737 80.005C354.155 79.587 354.364 78.9727 354.364 78.162V75.388C354.364 74.5773 354.155 73.963 353.737 73.545C353.319 73.127 352.737 72.918 351.989 72.918C351.255 72.918 350.672 73.127 350.241 73.545C349.823 73.963 349.614 74.5773 349.614 75.388V78.162C349.614 78.9727 349.823 79.587 350.241 80.005C350.672 80.423 351.255 80.632 351.989 80.632ZM362.147 82V73.051H358.347V71.55H367.657V73.051H363.857V82H362.147ZM374.014 82.152C373.178 82.152 372.456 81.9937 371.848 81.677C371.24 81.3603 370.765 80.9043 370.423 80.309C370.094 79.701 369.929 78.9853 369.929 78.162V75.388C369.929 74.552 370.094 73.8363 370.423 73.241C370.765 72.6457 371.24 72.1897 371.848 71.873C372.456 71.5563 373.178 71.398 374.014 71.398C374.85 71.398 375.572 71.5563 376.18 71.873C376.788 72.1897 377.257 72.6457 377.586 73.241C377.928 73.8363 378.099 74.5457 378.099 75.369V78.162C378.099 78.9853 377.928 79.701 377.586 80.309C377.257 80.9043 376.788 81.3603 376.18 81.677C375.572 81.9937 374.85 82.152 374.014 82.152ZM374.014 80.632C374.762 80.632 375.344 80.423 375.762 80.005C376.18 79.587 376.389 78.9727 376.389 78.162V75.388C376.389 74.5773 376.18 73.963 375.762 73.545C375.344 73.127 374.762 72.918 374.014 72.918C373.28 72.918 372.697 73.127 372.266 73.545C371.848 73.963 371.639 74.5773 371.639 75.388V78.162C371.639 78.9727 371.848 79.587 372.266 80.005C372.697 80.423 373.28 80.632 374.014 80.632ZM381.113 82V71.55H385.635C386.724 71.55 387.567 71.797 388.162 72.291C388.757 72.7723 389.055 73.45 389.055 74.324C389.055 75.046 388.808 75.6287 388.314 76.072C387.82 76.5027 387.168 76.718 386.357 76.718V76.566C387.244 76.566 387.953 76.7877 388.485 77.231C389.03 77.6743 389.302 78.2697 389.302 79.017C389.302 79.9543 388.985 80.689 388.352 81.221C387.719 81.7403 386.832 82 385.692 82H381.113ZM382.785 80.499H385.692C386.3 80.499 386.769 80.366 387.098 80.1C387.44 79.834 387.611 79.4603 387.611 78.979C387.611 78.485 387.44 78.105 387.098 77.839C386.769 77.573 386.3 77.44 385.692 77.44H382.785V80.499ZM382.785 75.958H385.635C386.167 75.958 386.585 75.8313 386.889 75.578C387.206 75.3247 387.364 74.97 387.364 74.514C387.364 74.058 387.212 73.7033 386.908 73.45C386.604 73.184 386.18 73.051 385.635 73.051H382.785V75.958ZM395.128 82.19C394.026 82.19 393.158 81.9113 392.525 81.354C391.891 80.784 391.575 80.0177 391.575 79.055C391.575 78.0797 391.891 77.3133 392.525 76.756C393.158 76.1987 394.013 75.92 395.09 75.92H398.32V74.875C398.32 74.229 398.123 73.735 397.731 73.393C397.351 73.0383 396.806 72.861 396.097 72.861C395.476 72.861 394.957 72.994 394.539 73.26C394.121 73.5133 393.88 73.8617 393.817 74.305H392.107C392.221 73.4057 392.645 72.69 393.38 72.158C394.114 71.626 395.033 71.36 396.135 71.36C397.338 71.36 398.288 71.6703 398.985 72.291C399.681 72.9117 400.03 73.754 400.03 74.818V82H398.358V80.005H398.073L398.358 79.72C398.358 80.48 398.06 81.0817 397.465 81.525C396.882 81.9683 396.103 82.19 395.128 82.19ZM395.546 80.841C396.356 80.841 397.021 80.6383 397.541 80.233C398.06 79.8277 398.32 79.3083 398.32 78.675V77.193H395.128C394.558 77.193 394.108 77.3513 393.779 77.668C393.449 77.9847 393.285 78.4153 393.285 78.96C393.285 79.5427 393.481 80.005 393.874 80.347C394.279 80.6763 394.836 80.841 395.546 80.841ZM403.1 85.42V71.55H404.81V73.545H405.152L404.81 73.944C404.81 73.146 405.07 72.519 405.589 72.063C406.121 71.5943 406.818 71.36 407.679 71.36C408.731 71.36 409.567 71.7083 410.187 72.405C410.821 73.089 411.137 74.0327 411.137 75.236V78.295C411.137 79.093 410.992 79.7833 410.7 80.366C410.422 80.9487 410.023 81.3983 409.503 81.715C408.997 82.0317 408.389 82.19 407.679 82.19C406.831 82.19 406.14 81.9557 405.608 81.487C405.076 81.0183 404.81 80.3913 404.81 79.606L405.152 80.005H404.772L404.81 82.38V85.42H403.1ZM407.109 80.708C407.831 80.708 408.395 80.4927 408.8 80.062C409.218 79.6313 409.427 79.0107 409.427 78.2V75.35C409.427 74.5393 409.218 73.9187 408.8 73.488C408.395 73.0573 407.831 72.842 407.109 72.842C406.413 72.842 405.855 73.0637 405.437 73.507C405.019 73.9503 404.81 74.5647 404.81 75.35V78.2C404.81 78.9853 405.019 79.5997 405.437 80.043C405.855 80.4863 406.413 80.708 407.109 80.708ZM418.065 82.152C417.229 82.152 416.507 81.9937 415.899 81.677C415.291 81.3603 414.816 80.9043 414.474 80.309C414.144 79.701 413.98 78.9853 413.98 78.162V75.388C413.98 74.552 414.144 73.8363 414.474 73.241C414.816 72.6457 415.291 72.1897 415.899 71.873C416.507 71.5563 417.229 71.398 418.065 71.398C418.901 71.398 419.623 71.5563 420.231 71.873C420.839 72.1897 421.307 72.6457 421.637 73.241C421.979 73.8363 422.15 74.5457 422.15 75.369V78.162C422.15 78.9853 421.979 79.701 421.637 80.309C421.307 80.9043 420.839 81.3603 420.231 81.677C419.623 81.9937 418.901 82.152 418.065 82.152ZM418.065 80.632C418.812 80.632 419.395 80.423 419.813 80.005C420.231 79.587 420.44 78.9727 420.44 78.162V75.388C420.44 74.5773 420.231 73.963 419.813 73.545C419.395 73.127 418.812 72.918 418.065 72.918C417.33 72.918 416.747 73.127 416.317 73.545C415.899 73.963 415.69 74.5773 415.69 75.388V78.162C415.69 78.9727 415.899 79.587 416.317 80.005C416.747 80.423 417.33 80.632 418.065 80.632ZM425.163 82V71.55H429.685C430.775 71.55 431.617 71.797 432.212 72.291C432.808 72.7723 433.105 73.45 433.105 74.324C433.105 75.046 432.858 75.6287 432.364 76.072C431.87 76.5027 431.218 76.718 430.407 76.718V76.566C431.294 76.566 432.003 76.7877 432.535 77.231C433.08 77.6743 433.352 78.2697 433.352 79.017C433.352 79.9543 433.036 80.689 432.402 81.221C431.769 81.7403 430.882 82 429.742 82H425.163ZM426.835 80.499H429.742C430.35 80.499 430.819 80.366 431.148 80.1C431.49 79.834 431.661 79.4603 431.661 78.979C431.661 78.485 431.49 78.105 431.148 77.839C430.819 77.573 430.35 77.44 429.742 77.44H426.835V80.499ZM426.835 75.958H429.685C430.217 75.958 430.635 75.8313 430.939 75.578C431.256 75.3247 431.414 74.97 431.414 74.514C431.414 74.058 431.262 73.7033 430.958 73.45C430.654 73.184 430.23 73.051 429.685 73.051H426.835V75.958Z" fill="#6A6A6A"/>
<path d="M106 53.52C103.469 53.52 101.32 53.052 99.552 52.116C97.784 51.1453 96.5187 49.8107 95.756 48.112C94.9933 46.3787 94.7853 44.368 95.132 42.08H102.932C102.689 43.5707 102.932 44.732 103.66 45.564C104.388 46.3613 105.532 46.76 107.092 46.76C108.652 46.76 109.917 46.3613 110.888 45.564C111.859 44.732 112.465 43.5707 112.708 42.08L113.488 37.4H102.828L103.92 30.38H114.58L115.256 25.96C115.533 24.4347 115.308 23.2733 114.58 22.476C113.852 21.6787 112.708 21.28 111.148 21.28C109.588 21.28 108.323 21.6787 107.352 22.476C106.381 23.2733 105.757 24.4347 105.48 25.96H97.68C98.0613 23.6373 98.9107 21.6267 100.228 19.928C101.545 18.2293 103.227 16.912 105.272 15.976C107.352 15.0053 109.657 14.52 112.188 14.52C114.753 14.52 116.903 15.0053 118.636 15.976C120.369 16.912 121.635 18.2293 122.432 19.928C123.229 21.6267 123.437 23.6373 123.056 25.96L120.508 42.08C120.161 44.368 119.312 46.3787 117.96 48.112C116.643 49.8107 114.961 51.1453 112.916 52.116C110.871 53.052 108.565 53.52 106 53.52ZM125.74 53.26L126.884 46.24H128.444C129.345 46.24 130.16 45.7547 130.888 44.784C131.65 43.8133 132.153 42.5653 132.396 41.04L136.868 15.04H158.812L152.78 53H144.98L149.816 22.32H143.316L140.144 41.04C139.728 43.536 138.948 45.7027 137.804 47.54C136.66 49.3773 135.221 50.7987 133.488 51.804C131.789 52.7747 129.9 53.26 127.82 53.26H125.74ZM163.471 53L169.503 15.04H192.903L191.811 21.696H176.055L174.703 30.224H188.639L187.599 36.88H173.663L172.155 46.344H187.911L186.871 53H163.471ZM196.991 53L203.023 15.04H210.823L208.483 29.756H212.019L220.755 15.04H229.231L218.207 33.656L223.511 53H215.243L211.291 36.932H207.339L204.791 53H196.991ZM239.611 53L244.447 22.32H234.827L236.023 15.04H263.063L261.867 22.32H252.247L247.411 53H239.611ZM265.642 53L271.674 15.04H284.622C287.292 15.04 289.528 15.5427 291.33 16.548C293.168 17.5533 294.485 18.9573 295.282 20.76C296.114 22.5627 296.34 24.6773 295.958 27.104C295.577 29.496 294.693 31.6107 293.306 33.448C291.92 35.2507 290.152 36.6547 288.002 37.66C285.853 38.6653 283.444 39.168 280.774 39.168H275.626L273.442 53H265.642ZM276.77 32.148H281.918C283.582 32.148 284.969 31.6973 286.078 30.796C287.222 29.86 287.916 28.6293 288.158 27.104C288.401 25.5787 288.089 24.3653 287.222 23.464C286.39 22.528 285.142 22.06 283.478 22.06H278.33L276.77 32.148ZM312.006 53.52C309.475 53.52 307.343 53.052 305.61 52.116C303.911 51.1453 302.681 49.8107 301.918 48.112C301.19 46.3787 300.999 44.368 301.346 42.08L303.894 25.96C304.275 23.672 305.107 21.6787 306.39 19.98C307.673 18.2467 309.319 16.912 311.33 15.976C313.375 15.0053 315.663 14.52 318.194 14.52C320.759 14.52 322.891 15.0053 324.59 15.976C326.323 16.912 327.554 18.2467 328.282 19.98C329.045 21.6787 329.235 23.672 328.854 25.96L326.306 42.08C325.959 44.368 325.127 46.3787 323.81 48.112C322.527 49.8107 320.881 51.1453 318.87 52.116C316.859 53.052 314.571 53.52 312.006 53.52ZM313.098 46.76C314.658 46.76 315.889 46.3613 316.79 45.564C317.691 44.732 318.263 43.5707 318.506 42.08L321.054 25.96C321.331 24.4347 321.141 23.2733 320.482 22.476C319.858 21.6787 318.749 21.28 317.154 21.28C315.559 21.28 314.311 21.6787 313.41 22.476C312.543 23.2733 311.971 24.4347 311.694 25.96L309.146 42.08C308.903 43.5707 309.111 44.732 309.77 45.564C310.429 46.3613 311.538 46.76 313.098 46.76ZM332.994 53L339.026 15.04H347.658L349.218 27C349.391 28.248 349.495 29.34 349.53 30.276C349.599 31.212 349.616 31.8707 349.582 32.252C349.686 31.8707 349.894 31.212 350.206 30.276C350.552 29.34 351.003 28.248 351.558 27L356.914 15.04H365.858L359.826 53H352.702L354.366 42.6C354.678 40.6933 355.042 38.7 355.458 36.62C355.874 34.5053 356.307 32.408 356.758 30.328C357.243 28.248 357.711 26.3067 358.162 24.504C358.612 22.6667 359.011 21.072 359.358 19.72L352.286 36.88H345.682L343.81 19.72C343.775 21.0027 343.706 22.5453 343.602 24.348C343.532 26.116 343.411 28.04 343.238 30.12C343.064 32.1653 342.856 34.2627 342.614 36.412C342.371 38.5613 342.094 40.624 341.782 42.6L340.118 53H332.994ZM368.229 53L374.261 15.04H381.125L378.473 31.68C378.3 32.8587 378.04 34.228 377.693 35.788C377.381 37.348 377.035 38.8907 376.653 40.416C376.307 41.9413 375.995 43.276 375.717 44.42L390.017 15.04H399.221L393.189 53H386.325L388.821 37.4C389.029 36.1867 389.307 34.748 389.653 33.084C390 31.42 390.364 29.7387 390.745 28.04C391.127 26.3413 391.473 24.868 391.785 23.62L377.433 53H368.229ZM402.841 53L408.873 15.04H421.821C424.491 15.04 426.727 15.5427 428.529 16.548C430.367 17.5533 431.684 18.9573 432.481 20.76C433.313 22.5627 433.539 24.6773 433.157 27.104C432.776 29.496 431.892 31.6107 430.505 33.448C429.119 35.2507 427.351 36.6547 425.201 37.66C423.052 38.6653 420.643 39.168 417.973 39.168H412.825L410.641 53H402.841ZM413.969 32.148H419.117C420.781 32.148 422.168 31.6973 423.277 30.796C424.421 29.86 425.115 28.6293 425.357 27.104C425.6 25.5787 425.288 24.3653 424.421 23.464C423.589 22.528 422.341 22.06 420.677 22.06H415.529L413.969 32.148Z" fill="#6A6A6A"/>
</svg>
