<svg width="48" height="48" viewBox="0 0 48 48" fill="none" xmlns="http://www.w3.org/2000/svg">
<path d="M29.88 39L24 35.54L18.12 39L19.68 32.32L14.5 27.84L21.32 27.26L24 21L26.68 27.26L33.5 27.84L28.32 32.32M40 4H8V8L17.72 15.28C14.3288 16.7272 11.5415 19.3011 9.82947 22.5666C8.11743 25.8321 7.58572 29.5887 8.32428 33.201C9.06283 36.8133 11.0263 40.0597 13.8827 42.3912C16.739 44.7226 20.3129 45.996 24 45.996C27.6871 45.996 31.261 44.7226 34.1173 42.3912C36.9737 40.0597 38.9372 36.8133 39.6757 33.201C40.4143 29.5887 39.8826 25.8321 38.1705 22.5666C36.4585 19.3011 33.6712 16.7272 30.28 15.28L40 8M36 30C36.0011 32.2726 35.3568 34.4987 34.1422 36.4194C32.9275 38.3401 31.1925 39.8764 29.1388 40.8496C27.0852 41.8228 24.7975 42.1929 22.5418 41.9167C20.286 41.6405 18.1551 40.7295 16.3969 39.2897C14.6387 37.8498 13.3255 35.9403 12.6101 33.7833C11.8947 31.6263 11.8065 29.3105 12.3558 27.1053C12.905 24.9001 14.0692 22.8962 15.7128 21.3268C17.3564 19.7574 19.4118 18.6869 21.64 18.24C23.1971 17.9199 24.8029 17.9199 26.36 18.24C29.0778 18.7852 31.5231 20.2544 33.2805 22.3982C35.0378 24.542 35.9987 27.228 36 30ZM25.26 14H22.74L14.74 8H33.42L25.26 14Z" fill="#3E7A4A"/>
</svg>
