<svg width="36" height="36" viewBox="0 0 36 36" fill="none" xmlns="http://www.w3.org/2000/svg">
<g clip-path="url(#clip0_76_8)">
<path d="M3.21554 21.4569L3.21574 21.4566C4.15034 20.1615 5.20427 18.9269 6.37809 17.7531C8.01571 16.1155 9.60982 14.891 11.1589 14.0666L11.159 14.0665C12.7206 13.2347 14.2333 12.7263 15.699 12.5298L15.8666 12.5073L15.9861 12.3878L20.5121 7.86179L28.4924 5.77537L29.3261 6.60909L27.2397 14.5893L22.7137 19.1153L22.5913 19.2377L22.5708 19.4096C22.3935 20.8933 21.8914 22.407 21.0528 23.9527L21.0527 23.9529C20.2173 25.4944 18.9867 27.085 17.3483 28.7234C16.1905 29.8812 14.9632 30.9361 13.6664 31.8881C12.5881 32.6798 11.699 33.2136 10.9916 33.5133C10.7808 32.9152 10.7832 32.3052 10.9987 31.6655C11.2802 30.8316 11.7441 30.0938 12.3968 29.4487L12.3989 29.4466C12.873 28.9725 13.4459 28.5076 14.1212 28.0531C14.8431 27.5673 15.4925 27.037 16.0679 26.4616C17.3254 25.2041 18.2149 23.7053 18.7347 21.9731C19.25 20.2557 19.4597 18.3316 19.3737 16.2071L19.3547 15.738L18.8853 15.7275C16.7398 15.6796 14.8222 15.8901 13.1391 16.3684L13.139 16.3685C11.4359 16.8531 9.98006 17.6934 8.78239 18.891C8.14385 19.5296 7.57367 20.2285 7.07205 20.9874L7.07198 20.9875C6.60442 21.6952 6.12733 22.2948 5.64203 22.7897C5.0112 23.4201 4.28699 23.8655 3.46525 24.1318C2.83469 24.3362 2.22304 24.3366 1.61336 24.1277C1.91194 23.4199 2.43853 22.532 3.21554 21.4569ZM23.0647 13.0981C22.7995 13.0929 22.5755 13.0064 22.3743 12.8249L22.3254 12.776C22.1112 12.5619 22.0098 12.323 22.0034 12.0368C21.9986 11.7554 22.0915 11.5238 22.3006 11.3147C22.4516 11.1637 22.6199 11.0675 22.8113 11.0173C22.9867 10.9712 23.184 10.9753 23.4165 11.0511L23.7082 11.1463L23.9251 10.9293L26.9399 7.91459L28.2503 6.6042L26.4586 7.07763L21.0189 8.515L20.8885 8.54946L20.7931 8.64485L17.7573 11.6807L17.4037 12.0342L17.7573 12.3878L22.7137 17.3442L23.0672 17.6978L23.4208 17.3442L26.4566 14.3084L26.552 14.213L26.5865 14.0826L28.0238 8.64289L28.4973 6.85121L27.1869 8.1616L24.1721 11.1764L23.9536 11.3949L24.0513 11.688C24.1277 11.9172 24.1321 12.1126 24.0857 12.2879C24.0346 12.4809 23.9377 12.6499 23.7868 12.8008C23.5763 13.0113 23.3447 13.1036 23.0647 13.0981Z" stroke="#5C5C5C"/>
</g>
<defs>
<clipPath id="clip0_76_8">
<rect width="36" height="36" fill="white"/>
</clipPath>
</defs>
</svg>
