<svg width="36" height="36" viewBox="0 0 36 36" fill="none" xmlns="http://www.w3.org/2000/svg">
<rect x="3.5" y="3.5" width="29" height="29" rx="2.5" stroke="#5C5C5C"/>
<path fill-rule="evenodd" clip-rule="evenodd" d="M26.1945 15.3125C25.8372 15.9313 25.177 16.3125 24.4625 16.3125H12.0494C11.3349 16.3125 10.6746 15.9313 10.3174 15.3125L9.27093 13.5C8.50113 12.1667 9.46338 10.5 11.003 10.5H25.5089C27.0485 10.5 28.0108 12.1667 27.241 13.5L26.1945 15.3125Z" fill="#5C5C5C"/>
<path d="M18.8757 28.5C18.4908 29.1667 17.5286 29.1667 17.1437 28.5L12.0558 19.6875C11.6709 19.0208 12.152 18.1875 12.9218 18.1875H23.0976C23.8674 18.1875 24.3485 19.0208 23.9636 19.6875L18.8757 28.5Z" fill="#5C5C5C"/>
<rect x="12.7597" y="6.375" width="0.75" height="4.5" rx="0.375" fill="#D9D9D9" stroke="#5C5C5C" stroke-width="0.75"/>
<rect x="23.375" y="6.375" width="0.75" height="4.5" rx="0.375" fill="#D9D9D9" stroke="#5C5C5C" stroke-width="0.75"/>
<mask id="path-6-inside-1_76_7" fill="white">
<path d="M17.5 27.5C17.5 27.2239 17.7239 27 18 27C18.2761 27 18.5 27.2239 18.5 27.5V31.75C18.5 32.0261 18.2761 32.25 18 32.25C17.7239 32.25 17.5 32.0261 17.5 31.75V27.5Z"/>
</mask>
<path d="M17.5 27.5C17.5 27.2239 17.7239 27 18 27C18.2761 27 18.5 27.2239 18.5 27.5V31.75C18.5 32.0261 18.2761 32.25 18 32.25C17.7239 32.25 17.5 32.0261 17.5 31.75V27.5Z" fill="#D9D9D9"/>
<path d="M17.5 27.5V31.75H19.5V27.5H17.5ZM18.5 31.75V27.5H16.5V31.75H18.5ZM18 31.25C18.2761 31.25 18.5 31.4739 18.5 31.75H16.5C16.5 32.5784 17.1716 33.25 18 33.25V31.25ZM17.5 31.75C17.5 31.4739 17.7239 31.25 18 31.25V33.25C18.8284 33.25 19.5 32.5784 19.5 31.75H17.5ZM18 28C17.7239 28 17.5 27.7761 17.5 27.5H19.5C19.5 26.6716 18.8284 26 18 26V28ZM18 26C17.1716 26 16.5 26.6716 16.5 27.5H18.5C18.5 27.7761 18.2761 28 18 28V26Z" fill="#5C5C5C" mask="url(#path-6-inside-1_76_7)"/>
</svg>
