<svg width="37" height="37" viewBox="0 0 37 37" fill="none" xmlns="http://www.w3.org/2000/svg">
<path d="M26.0417 22.9167H24.3958L23.8125 22.3542C25.9247 19.9042 27.0856 16.7765 27.0833 13.5417C27.0833 10.8634 26.2891 8.24524 24.8012 6.01833C23.3132 3.79141 21.1983 2.05574 18.7238 1.0308C16.2494 0.00586739 13.5266 -0.262303 10.8998 0.260205C8.273 0.782714 5.8601 2.07243 3.96627 3.96627C2.07243 5.8601 0.782714 8.273 0.260205 10.8998C-0.262303 13.5266 0.00586739 16.2494 1.0308 18.7238C2.05574 21.1983 3.79141 23.3132 6.01833 24.8012C8.24524 26.2891 10.8634 27.0833 13.5417 27.0833C16.8958 27.0833 19.9792 25.8542 22.3542 23.8125L22.9167 24.3958V26.0417L33.3333 36.4375L36.4375 33.3333L26.0417 22.9167ZM13.5417 22.9167C8.35417 22.9167 4.16667 18.7292 4.16667 13.5417C4.16667 8.35417 8.35417 4.16667 13.5417 4.16667C18.7292 4.16667 22.9167 8.35417 22.9167 13.5417C22.9167 18.7292 18.7292 22.9167 13.5417 22.9167Z" fill="#373737"/>
</svg>
