<svg width="36" height="36" viewBox="0 0 36 36" fill="none" xmlns="http://www.w3.org/2000/svg">
<path d="M28.4635 24.9828C30.7371 21.0557 29.4145 11.4676 28.4664 7.15098C28.4645 7.14254 28.4587 7.13604 28.4506 7.1329L18.9822 3.42515C18.2839 3.15168 17.5084 3.1497 16.8087 3.41961L7.27341 7.09758C7.26534 7.10069 7.25946 7.10718 7.25758 7.11563C6.30659 11.3954 4.97995 20.9014 7.26049 24.7949C9.21465 28.1311 13.8427 30.9538 16.6537 32.3945C17.4356 32.7952 18.3564 32.7929 19.1421 32.3995C21.9375 30.9999 26.5173 28.3444 28.4635 24.9828Z" stroke="#5C5C5C"/>
<path d="M17.154 20.1113C17.1608 20.052 17.1144 20 17.0547 20H13.13C13.0643 20 13.0165 19.9378 13.0333 19.8744L15.8969 9.07437C15.9086 9.03053 15.9482 9 15.9936 9H21.1936C21.2621 9 21.3104 9.06739 21.2882 9.13227L18.8784 16.2011C18.8563 16.2659 18.9045 16.3333 18.9731 16.3333H22.8225C22.9004 16.3333 22.9484 16.4185 22.908 16.4852L16.5697 26.9433C16.5141 27.0351 16.3727 26.9868 16.3848 26.8802L17.154 20.1113Z" fill="#5C5C5C"/>
</svg>
