<svg width="57" height="57" viewBox="0 0 57 57" fill="none" xmlns="http://www.w3.org/2000/svg">
<circle cx="28.5" cy="28.5" r="28.5" fill="#D9D9D9"/>
<path d="M28.6953 15.9993V17.1084H28.2262V20.8604H28.6953V27.4257C27.6588 27.4257 26.8183 28.2652 26.8183 29.3024C26.8183 30.3396 27.6588 31.1798 28.6953 31.1798C28.9143 31.1798 29.1228 31.1351 29.3189 31.0653L36.3324 36.8672L36.3317 36.8658L38.1464 38.6643C40.5279 36.261 41.9982 32.9532 41.9982 29.3024C41.9982 21.9563 36.0421 15.9993 28.6953 15.9993ZM38.0861 36.7324L30.5696 29.2871C30.5663 28.7962 30.3708 28.3266 30.0257 27.9803V17.4031C31.5424 17.5715 32.9747 18.0275 34.2683 18.7113L33.4472 20.1326L34.2593 20.6013L35.0804 19.1821C36.584 20.134 37.8595 21.4102 38.8151 22.9187L37.3967 23.738L37.8658 24.5503L39.2828 23.7338C40.1137 25.3091 40.5801 27.0537 40.6471 28.8366H37.1383V29.7725H40.6492C40.5844 31.5567 40.1197 33.3029 39.2897 34.8802L37.8658 34.0574L37.3967 34.8697L38.8178 35.6911C38.5906 36.0473 38.3522 36.3979 38.0861 36.7324ZM28.2262 37.7459H29.1637V41.4979H28.2262V37.7459ZM16.4997 28.8352H20.2524V29.7711H16.4997V28.8352ZM22.1911 18.9767L23.1293 20.6006L23.9421 20.1319L23.0039 18.5081L22.1911 18.9767ZM19.9932 23.7373L18.3684 22.7993L17.8993 23.6122L19.5242 24.551L19.9932 23.7373ZM17.8993 34.9947L18.3684 35.8077L19.9932 34.8683L19.5242 34.056L17.8993 34.9947ZM22.1904 39.6302L23.0032 40.0989L23.9414 38.4736L23.1293 38.0043L22.1904 39.6302ZM33.4479 38.4736L34.3861 40.0989L35.1995 39.6302L34.26 38.0043L33.4479 38.4736Z" fill="#5C5C5C"/>
<circle cx="28.755" cy="29.2425" r="18.255" stroke="#5C5C5C" stroke-width="3"/>
<rect x="14.8575" y="13.477" width="3.2925" height="2.195" transform="rotate(-40 14.8575 13.477)" fill="#5C5C5C"/>
<path d="M11.8378 11.5857C11.4828 11.1626 11.538 10.5319 11.9611 10.1769L14.6326 7.93513C15.0557 7.58013 15.6865 7.63531 16.0415 8.05839L18.2205 10.6553L14.0169 14.1826L11.8378 11.5857Z" fill="#5C5C5C"/>
<path d="M26.56 5C26.56 4.44771 27.0077 4 27.56 4H29.95C30.5023 4 30.95 4.44772 30.95 5V10.585H26.56V5Z" fill="#5C5C5C"/>
<rect x="40.8841" y="11.3608" width="3.2925" height="2.195" transform="rotate(40 40.8841 11.3608)" fill="#5C5C5C"/>
<path d="M42.2223 8.05871C42.5773 7.63563 43.2081 7.58045 43.6312 7.93545L46.3028 10.1772C46.7258 10.5322 46.781 11.1629 46.426 11.586L44.247 14.1829L40.0433 10.6556L42.2223 8.05871Z" fill="#5C5C5C"/>
</svg>
