<svg width="36" height="36" viewBox="0 0 36 36" fill="none" xmlns="http://www.w3.org/2000/svg">
<path d="M22.0455 3H9.5C8.94772 3 8.5 3.44772 8.5 4V32C8.5 32.5523 8.94772 33 9.5 33H22.0455C22.5977 33 23.0455 32.5523 23.0455 32V27.2759C23.0455 26.7236 23.4932 26.2759 24.0455 26.2759H27.5C28.0523 26.2759 28.5 25.8281 28.5 25.2759V10.2069C28.5 9.65461 28.0523 9.2069 27.5 9.2069H24.0455C23.4932 9.2069 23.0455 8.75918 23.0455 8.2069V4C23.0455 3.44772 22.5977 3 22.0455 3Z" stroke="#5C5C5C"/>
<path fill-rule="evenodd" clip-rule="evenodd" d="M6 5.58621H8V4.55173H5.55C5.24624 4.55173 5 4.80646 5 5.12069V12.219C5 12.6613 5.46639 12.9344 5.83297 12.7069L8.25725 11.2022V9.96465L6 11.3968V5.58621Z" fill="#5C5C5C"/>
<path d="M8 30.931H5.55C5.52239 30.931 5.5 30.9087 5.5 30.881V23.7397C5.5 23.7121 5.52239 23.6897 5.55 23.6897H8" stroke="#5C5C5C"/>
<path d="M28.0455 11.2759C28.9511 11.8613 30.1806 13.1619 30.6963 14.1495C31.2121 15.1372 31.4846 16.2598 31.49 17.4191C31.4955 18.5785 31.2338 19.7393 30.7277 20.7998C30.2217 21.8604 28.948 23.329 28.0485 24.0432L28.0455 22.6957C28.8156 22.0842 29.4447 21.2898 29.878 20.3818C30.3112 19.4739 30.5353 18.4802 30.5306 17.4876C30.5259 16.4951 30.2926 15.534 29.8511 14.6885C29.4096 13.843 28.7733 13.1389 27.998 12.6377L28.0455 11.2759Z" fill="#5C5C5C"/>
<rect width="2.02759" height="1.02097" rx="0.2" transform="matrix(0.76657 -0.642161 0.616397 0.787435 29.5 13.2289)" fill="#5C5C5C"/>
<path d="M8.5 12.3103H10.95C10.9776 12.3103 11 12.3327 11 12.3603V21.0534C11 21.0811 10.9776 21.1034 10.95 21.1034H8.5" stroke="#5C5C5C"/>
</svg>
