<svg width="67" height="67" viewBox="0 0 67 67" fill="none" xmlns="http://www.w3.org/2000/svg">
<circle cx="33.5" cy="33.5" r="31.5" stroke="#6A6A6A" stroke-width="4"/>
<path fill-rule="evenodd" clip-rule="evenodd" d="M19.173 15.6527C21.7084 13.1319 25.8834 13.5798 28.0063 16.4173L30.6355 19.9256C32.3646 22.234 32.2105 25.459 30.1584 27.4985L29.6626 27.9944C29.6066 28.2025 29.6009 28.421 29.6459 28.6319C29.7771 29.4819 30.4876 31.2819 33.4626 34.2402C36.4376 37.1985 38.2501 37.9069 39.1126 38.0402C39.3297 38.0864 39.5547 38.0799 39.7688 38.0214L40.6188 37.1756C42.4438 35.3631 45.2438 35.0235 47.5021 36.2506L51.4813 38.4173C54.8917 40.2673 55.7521 44.9006 52.9605 47.6777L50.0001 50.6194C49.0667 51.5465 47.8126 52.3194 46.2834 52.4631C42.5126 52.8152 33.7271 52.3652 24.4917 43.184C15.873 34.6131 14.2188 27.1381 14.0084 23.4548C13.9042 21.5923 14.7834 20.0173 15.9042 18.9048L19.173 15.6527ZM25.5063 18.2902C24.4501 16.8798 22.4834 16.7673 21.3751 17.8694L18.1042 21.1194C17.4167 21.8027 17.0876 22.5569 17.1292 23.2777C17.2959 26.2048 18.6292 32.9485 26.6959 40.9694C35.1584 49.3819 42.973 49.634 45.9938 49.3506C46.6105 49.2944 47.223 48.9735 47.7959 48.4048L50.7542 45.461C51.9584 44.2652 51.6938 42.086 49.9896 41.161L46.0105 38.9965C44.9105 38.4006 43.623 38.5964 42.823 39.3923L41.8751 40.336L40.7709 39.2277C41.8751 40.336 41.873 40.3381 41.8709 40.3381L41.8688 40.3423L41.8626 40.3485L41.848 40.361L41.8167 40.3902C41.7281 40.471 41.6334 40.5449 41.5334 40.611C41.3667 40.7214 41.1459 40.8444 40.8688 40.9465C40.3063 41.1569 39.5605 41.2694 38.6396 41.1277C36.8334 40.8506 34.4396 39.6194 31.2584 36.4569C28.0792 33.2944 26.8376 30.9152 26.5584 29.111C26.4146 28.1902 26.5292 27.4444 26.7417 26.8819C26.8596 26.5658 27.0269 26.2704 27.2376 26.0069L27.3042 25.934L27.3334 25.9027L27.3459 25.8902L27.3521 25.884L27.3563 25.8798L27.9563 25.284C28.848 24.3944 28.973 22.9215 28.1334 21.7985L25.5063 18.2902Z" fill="#6A6A6A"/>
</svg>
