<svg width="57" height="57" viewBox="0 0 57 57" fill="none" xmlns="http://www.w3.org/2000/svg">
<circle cx="28.5" cy="28.5" r="28.5" fill="#D9D9D9"/>
<path d="M42.2746 42H16.6593C15.6888 42 14.7581 41.6145 14.0718 40.9282C13.3855 40.242 13 39.3112 13 38.3407V21.8737C13 20.9032 13.3855 19.9724 14.0718 19.2861C14.7581 18.5999 15.6888 18.2144 16.6593 18.2144H42.2746C43.2452 18.2144 44.1759 18.5999 44.8622 19.2861C45.5484 19.9724 45.934 20.9032 45.934 21.8737V38.3407C45.934 39.3112 45.5484 40.242 44.8622 40.9282C44.1759 41.6145 43.2452 42 42.2746 42Z" stroke="#5C5C5C" stroke-width="3.125"/>
<path d="M37.7005 31.022C37.4579 31.022 37.2252 30.9256 37.0536 30.754C36.882 30.5825 36.7856 30.3498 36.7856 30.1072C36.7856 29.8645 36.882 29.6318 37.0536 29.4603C37.2252 29.2887 37.4579 29.1923 37.7005 29.1923C37.9431 29.1923 38.1758 29.2887 38.3474 29.4603C38.5189 29.6318 38.6153 29.8645 38.6153 30.1072C38.6153 30.3498 38.5189 30.5825 38.3474 30.754C38.1758 30.9256 37.9431 31.022 37.7005 31.022Z" fill="#5C5C5C" stroke="#5C5C5C" stroke-width="3.125" stroke-linecap="round" stroke-linejoin="round"/>
<path d="M40.445 18.2144V15.6583C40.4448 15.0975 40.3158 14.5443 40.0678 14.0413C39.8199 13.5383 39.4596 13.099 39.0149 12.7574C38.5702 12.4158 38.0529 12.1809 37.503 12.071C36.9531 11.9611 36.3852 11.979 35.8434 12.1234L15.7171 17.4898C14.9377 17.6975 14.2488 18.1568 13.7575 18.7964C13.2661 19.436 12.9998 20.22 13 21.0265V21.8737" stroke="#5C5C5C" stroke-width="3.125"/>
</svg>
