<svg width="36" height="36" viewBox="0 0 36 36" fill="none" xmlns="http://www.w3.org/2000/svg">
<mask id="path-1-outside-1_76_5" maskUnits="userSpaceOnUse" x="3.31" y="2" width="30" height="32" fill="black">
<rect fill="white" x="3.31" y="2" width="30" height="32"/>
<path fill-rule="evenodd" clip-rule="evenodd" d="M17.8943 4.08044C16.9798 4.08044 16.0878 4.05721 15.2308 4.0338L15.1011 4.03025C14.2893 4.00802 13.5108 3.9867 12.768 3.98549C11.1984 3.98294 9.82347 4.07106 8.68535 4.41423C7.55562 4.75488 6.68939 5.3376 6.09699 6.30265C5.50043 7.27446 5.14169 8.69863 5.14169 10.8143C5.14169 12.7137 5.49643 14.0357 6.09271 14.9726C6.68866 15.909 7.56311 16.5193 8.69893 16.9107C9.83981 17.3039 11.2171 17.4666 12.7823 17.5278C13.8913 17.5712 15.0751 17.5633 16.3214 17.555C16.7909 17.5519 17.2692 17.5487 17.7557 17.5482C18.6594 17.5482 19.5425 17.5251 20.4 17.5017L20.5327 17.4981C21.3418 17.4759 22.1287 17.4544 22.8809 17.4531C24.4622 17.4506 25.9249 17.5369 27.1698 17.9123C28.423 18.2902 29.4853 18.9701 30.2256 20.1761C30.9618 21.3753 31.34 23.0306 31.34 25.2673C31.34 27.3096 30.9578 28.8619 30.2213 30.019C29.4846 31.1767 28.4305 31.8803 27.1833 32.31C25.9412 32.7381 24.4809 32.9038 22.8952 32.9658C21.7692 33.0098 20.5602 33.0018 19.3067 32.9935C18.7963 32.9901 18.2783 32.9866 17.7557 32.9866H6.38923V32.0012H17.7557C18.2901 32.0012 18.8146 32.0047 19.3286 32.0081C20.5749 32.0164 21.7587 32.0243 22.8677 31.9809C24.4329 31.9197 25.8102 31.757 26.9511 31.3638C28.0869 30.9724 28.9613 30.3621 29.5573 29.4257C30.1536 28.4888 30.5083 27.1668 30.5083 25.2673C30.5083 23.1517 30.1496 21.7275 29.553 20.7557C28.9606 19.7907 28.0944 19.208 26.9646 18.8673C25.8265 18.5241 24.4516 18.436 22.882 18.4386C22.1392 18.4398 21.3607 18.4611 20.5489 18.4833L20.4192 18.4869C19.6055 18.5091 18.7603 18.5312 17.8943 18.5333C17.3717 18.5333 16.8539 18.537 16.3435 18.5404C15.0899 18.5487 13.8808 18.5567 12.7548 18.5127C11.1691 18.4507 9.70881 18.285 8.46666 17.857C7.21946 17.4272 6.16544 16.7236 5.42866 15.5659C4.69222 14.4088 4.31 12.8566 4.31 10.8143C4.31 8.57755 4.68823 6.92223 5.42439 5.723C6.1647 4.51701 7.22695 3.83714 8.48024 3.45923C9.72514 3.08386 11.1878 2.99748 12.7691 3.00006C13.5213 3.00128 15.2251 3.01403 16.0342 3.03619L15.25 3.04862C17.31 3 18.4063 3.09501 19.31 3.09501H29.1222V4.08044H17.8943Z"/>
</mask>
<path d="M15.2308 4.0338L15.2035 5.03343L15.2035 5.03343L15.2308 4.0338ZM15.1011 4.03025L15.0738 5.02988L15.0738 5.02988L15.1011 4.03025ZM12.768 3.98549L12.7663 4.98549L12.768 3.98549ZM8.68535 4.41423L8.97404 5.37166V5.37166L8.68535 4.41423ZM6.09699 6.30265L6.94922 6.8258L6.94922 6.8258L6.09699 6.30265ZM6.09271 14.9726L6.93635 14.4357L6.09271 14.9726ZM8.69893 16.9107L8.37313 17.8562H8.37313L8.69893 16.9107ZM12.7823 17.5278L12.8213 16.5286L12.7823 17.5278ZM16.3214 17.555L16.3148 16.555H16.3148L16.3214 17.555ZM17.7557 17.5482V16.5482L17.7546 16.5482L17.7557 17.5482ZM20.4 17.5017L20.4273 18.5013L20.4274 18.5013L20.4 17.5017ZM20.5327 17.4981L20.56 18.4977H20.5601L20.5327 17.4981ZM22.8809 17.4531L22.8792 16.4531L22.8809 17.4531ZM27.1698 17.9123L26.8811 18.8697L27.1698 17.9123ZM30.2256 20.1761L29.3734 20.6992L29.3734 20.6992L30.2256 20.1761ZM30.2213 30.019L31.065 30.5559V30.5559L30.2213 30.019ZM27.1833 32.31L26.8575 31.3646L27.1833 32.31ZM22.8952 32.9658L22.8561 31.9666L22.8952 32.9658ZM19.3067 32.9935L19.3 33.9934H19.3L19.3067 32.9935ZM6.38923 32.9866H5.38923V33.9866H6.38923V32.9866ZM6.38923 32.0012V31.0012H5.38923V32.0012H6.38923ZM19.3286 32.0081L19.3352 31.0081H19.3352L19.3286 32.0081ZM22.8677 31.9809L22.8287 30.9817H22.8287L22.8677 31.9809ZM26.9511 31.3638L27.2769 32.3093H27.2769L26.9511 31.3638ZM29.5573 29.4257L28.7136 28.8888L29.5573 29.4257ZM29.553 20.7557L28.7008 21.2789L28.7008 21.2789L29.553 20.7557ZM26.9646 18.8673L26.676 19.8247L26.9646 18.8673ZM22.882 18.4386L22.8804 17.4386L22.882 18.4386ZM20.5489 18.4833L20.5762 19.483H20.5762L20.5489 18.4833ZM20.4192 18.4869L20.4465 19.4865L20.4465 19.4865L20.4192 18.4869ZM17.8943 18.5333V19.5334L17.8968 19.5333L17.8943 18.5333ZM16.3435 18.5404L16.3502 19.5403H16.3502L16.3435 18.5404ZM12.7548 18.5127L12.7158 19.512L12.7548 18.5127ZM8.46666 17.857L8.79246 16.9115H8.79246L8.46666 17.857ZM5.42866 15.5659L4.58502 16.1028L4.58503 16.1028L5.42866 15.5659ZM5.42439 5.723L6.27662 6.24616L6.27663 6.24616L5.42439 5.723ZM8.48024 3.45923L8.19155 2.50181L8.19155 2.50181L8.48024 3.45923ZM12.7691 3.00006L12.7675 4.00005L12.7691 3.00006ZM16.0342 3.03619L16.05 4.03607L16.0616 2.03657L16.0342 3.03619ZM15.25 3.04862L15.2264 2.0489L15.2658 4.0485L15.25 3.04862ZM29.1222 3.09501H30.1222V2.09501H29.1222V3.09501ZM29.1222 4.08044V5.08044H30.1222V4.08044H29.1222ZM15.2035 5.03343C16.0599 5.05682 16.9645 5.08044 17.8943 5.08044V3.08044C16.9952 3.08044 16.1158 3.0576 15.2581 3.03417L15.2035 5.03343ZM15.0738 5.02988L15.2035 5.03343L15.2582 3.03417L15.1285 3.03063L15.0738 5.02988ZM12.7663 4.98549C13.4939 4.98668 14.2592 5.00757 15.0738 5.02988L15.1285 3.03063C14.3194 3.00847 13.5276 2.98673 12.7696 2.98549L12.7663 4.98549ZM8.97404 5.37166C9.96337 5.07334 11.2142 4.98296 12.7663 4.98549L12.7696 2.98549C11.1825 2.98291 9.68357 3.06877 8.39666 3.45681L8.97404 5.37166ZM6.94922 6.8258C7.38803 6.11098 8.02812 5.65688 8.97404 5.37166L8.39666 3.45681C7.08312 3.85288 5.99075 4.56423 5.24475 5.77949L6.94922 6.8258ZM6.14169 10.8143C6.14169 8.79573 6.48665 7.57935 6.94922 6.8258L5.24475 5.77949C4.51421 6.96957 4.14169 8.60153 4.14169 10.8143H6.14169ZM6.93635 14.4357C6.47594 13.7123 6.14169 12.5981 6.14169 10.8143H4.14169C4.14169 12.8294 4.51692 14.3591 5.24908 15.5095L6.93635 14.4357ZM9.02473 15.9653C8.0523 15.6302 7.385 15.1406 6.93635 14.4357L5.24908 15.5095C5.99232 16.6773 7.07392 17.4085 8.37313 17.8562L9.02473 15.9653ZM12.8213 16.5286C11.2864 16.4686 10.0258 16.3103 9.02473 15.9653L8.37313 17.8562C9.65378 18.2975 11.1477 18.4647 12.7432 18.5271L12.8213 16.5286ZM16.3148 16.555C15.0632 16.5634 13.9033 16.5709 12.8213 16.5286L12.7432 18.5271C13.8794 18.5715 15.087 18.5632 16.3281 18.555L16.3148 16.555ZM17.7546 16.5482C17.2648 16.5487 16.7838 16.5519 16.3148 16.555L16.3281 18.555C16.7979 18.5519 17.2735 18.5487 17.7568 18.5482L17.7546 16.5482ZM17.7557 18.5482C18.6748 18.5482 19.5706 18.5247 20.4273 18.5013L20.3727 16.5021C19.5145 16.5255 18.644 16.5482 17.7557 16.5482V18.5482ZM20.4274 18.5013L20.56 18.4977L20.5053 16.4985L20.3726 16.5021L20.4274 18.5013ZM20.5601 18.4977C21.3718 18.4755 22.1456 18.4543 22.8825 18.4531L22.8792 16.4531C22.1119 16.4544 21.3117 16.4764 20.5053 16.4985L20.5601 18.4977ZM22.8825 18.4531C24.4461 18.4506 25.7848 18.5392 26.8811 18.8697L27.4584 16.9549C26.0649 16.5347 24.4783 16.4505 22.8792 16.4531L22.8825 18.4531ZM26.8811 18.8697C27.9511 19.1924 28.7869 19.7438 29.3734 20.6992L31.0778 19.6529C30.1837 18.1963 28.895 17.3881 27.4584 16.9549L26.8811 18.8697ZM29.3734 20.6992C29.9755 21.6801 30.34 23.1275 30.34 25.2673H32.34C32.34 22.9338 31.9481 21.0705 31.0778 19.6529L29.3734 20.6992ZM30.34 25.2673C30.34 27.1942 29.9782 28.5386 29.3777 29.4821L31.065 30.5559C31.9374 29.1851 32.34 27.425 32.34 25.2673H30.34ZM29.3777 29.4821C28.7884 30.4081 27.9417 30.991 26.8575 31.3646L27.5091 33.2555C28.9194 32.7695 30.1807 31.9453 31.065 30.5559L29.3777 29.4821ZM26.8575 31.3646C25.7551 31.7445 24.4113 31.9058 22.8561 31.9666L22.9342 33.965C24.5504 33.9019 26.1273 33.7317 27.5091 33.2555L26.8575 31.3646ZM22.8561 31.9666C21.7572 32.0095 20.5721 32.0018 19.3133 31.9935L19.3 33.9934C20.5484 34.0017 21.7812 34.0101 22.9342 33.965L22.8561 31.9666ZM19.3134 31.9935C18.8035 31.9901 18.2821 31.9866 17.7557 31.9866V33.9866C18.2744 33.9866 18.7891 33.99 19.3 33.9934L19.3134 31.9935ZM17.7557 31.9866H6.38923V33.9866H17.7557V31.9866ZM7.38923 32.9866V32.0012H5.38923V32.9866H7.38923ZM6.38923 33.0012H17.7557V31.0012H6.38923V33.0012ZM17.7557 33.0012C18.2862 33.0012 18.8075 33.0046 19.3219 33.0081L19.3352 31.0081C18.8218 31.0047 18.2939 31.0012 17.7557 31.0012V33.0012ZM19.3219 33.0081C20.563 33.0163 21.7706 33.0246 22.9068 32.9801L22.8287 30.9817C21.7467 31.024 20.5868 31.0164 19.3352 31.0081L19.3219 33.0081ZM22.9068 32.9801C24.5023 32.9178 25.9962 32.7506 27.2769 32.3093L26.6253 30.4184C25.6242 30.7634 24.3636 30.9217 22.8287 30.9817L22.9068 32.9801ZM27.2769 32.3093C28.5761 31.8615 29.6577 31.1304 30.4009 29.9626L28.7136 28.8888C28.265 29.5937 27.5977 30.0833 26.6253 30.4184L27.2769 32.3093ZM30.4009 29.9626C31.1331 28.8122 31.5083 27.2825 31.5083 25.2673H29.5083C29.5083 27.0511 29.1741 28.1653 28.7136 28.8888L30.4009 29.9626ZM31.5083 25.2673C31.5083 23.0546 31.1358 21.4226 30.4052 20.2326L28.7008 21.2789C29.1633 22.0324 29.5083 23.2488 29.5083 25.2673H31.5083ZM30.4052 20.2326C29.6592 19.0173 28.5669 18.306 27.2533 17.9099L26.676 19.8247C27.6219 20.11 28.262 20.5641 28.7008 21.2789L30.4052 20.2326ZM27.2533 17.9099C25.9664 17.5219 24.4675 17.436 22.8804 17.4386L22.8837 19.4386C24.4358 19.436 25.6866 19.5264 26.676 19.8247L27.2533 17.9099ZM22.8804 17.4386C22.1224 17.4398 21.3306 17.4616 20.5215 17.4837L20.5762 19.483C21.3908 19.4607 22.1561 19.4398 22.8837 19.4386L22.8804 17.4386ZM20.5215 17.4837L20.3918 17.4873L20.4465 19.4865L20.5762 19.483L20.5215 17.4837ZM20.3919 17.4873C19.5777 17.5095 18.7439 17.5312 17.8918 17.5334L17.8968 19.5333C18.7768 19.5311 19.6334 19.5087 20.4465 19.4865L20.3919 17.4873ZM16.3502 19.5403C16.8614 19.5369 17.3757 19.5333 17.8943 19.5333V17.5333C17.3677 17.5333 16.8464 17.537 16.3369 17.5404L16.3502 19.5403ZM12.7158 19.512C13.8689 19.557 15.1018 19.5486 16.3502 19.5403L16.3369 17.5404C15.0781 17.5488 13.8928 17.5565 12.7939 17.5135L12.7158 19.512ZM8.14086 18.8024C9.5227 19.2786 11.0996 19.4488 12.7158 19.512L12.7939 17.5135C11.2386 17.4527 9.89492 17.2914 8.79246 16.9115L8.14086 18.8024ZM4.58503 16.1028C5.46925 17.4922 6.73061 18.3164 8.14086 18.8024L8.79246 16.9115C7.70831 16.5379 6.86162 15.955 6.2723 15.029L4.58503 16.1028ZM3.31 10.8143C3.31 12.972 3.71261 14.732 4.58502 16.1028L6.2723 15.029C5.67183 14.0855 5.31 12.7412 5.31 10.8143H3.31ZM4.57215 5.19985C3.70193 6.61746 3.31 8.48067 3.31 10.8143H5.31C5.31 8.67444 5.67452 7.22701 6.27662 6.24616L4.57215 5.19985ZM8.19155 2.50181C6.75495 2.93499 5.46629 3.74326 4.57215 5.19985L6.27663 6.24616C6.86311 5.29075 7.69895 4.73929 8.76893 4.41666L8.19155 2.50181ZM12.7707 2.00006C11.1717 1.99745 9.58512 2.08161 8.19155 2.50181L8.76893 4.41666C9.86517 4.08611 11.2039 3.99751 12.7675 4.00005L12.7707 2.00006ZM16.0616 2.03657C15.2388 2.01403 13.5241 2.00128 12.7707 2.00006L12.7675 4.00005C13.5184 4.00128 15.2114 4.01403 16.0068 4.03582L16.0616 2.03657ZM15.2658 4.0485L16.05 4.03607L16.0183 2.03632L15.2341 2.04875L15.2658 4.0485ZM19.31 2.09501C18.5376 2.09501 17.2597 2.00091 15.2264 2.0489L15.2736 4.04835C17.3603 3.99909 18.275 4.09501 19.31 4.09501V2.09501ZM29.1222 2.09501H19.31V4.09501H29.1222V2.09501ZM30.1222 4.08044V3.09501H28.1222V4.08044H30.1222ZM17.8943 5.08044H29.1222V3.08044H17.8943V5.08044Z" fill="#5C5C5C" mask="url(#path-1-outside-1_76_5)"/>
<rect x="29.3994" y="3.32849" width="3.11" height="0.656958" fill="#5C5C5C"/>
<rect x="3" y="32.2346" width="3.11" height="0.656958" fill="#5C5C5C"/>
<circle cx="17.81" cy="18.5" r="8.5" fill="#F2F2F2" stroke="#5C5C5C"/>
<path d="M17.2974 20.2113C17.3041 20.152 17.2577 20.1 17.198 20.1H14.94C14.8743 20.1 14.8265 20.0378 14.8433 19.9744L16.5403 13.5744C16.5519 13.5305 16.5916 13.5 16.6369 13.5H19.6703C19.7388 13.5 19.787 13.5674 19.7649 13.6323L18.3551 17.7677C18.333 17.8326 18.3812 17.9 18.4497 17.9H20.6325C20.7104 17.9 20.7584 17.9852 20.718 18.0518L17.0464 24.11C16.9908 24.2017 16.8494 24.1534 16.8615 24.0469L17.2974 20.2113Z" fill="#5C5C5C"/>
</svg>
