<svg width="67" height="71" viewBox="0 0 67 71" fill="none" xmlns="http://www.w3.org/2000/svg">
<path d="M31.8421 55.9305L21.8947 50.3515M21.8947 50.3515L2 61.5095V13.158L21.8947 2M21.8947 50.3515V2M21.8947 2L41.7895 13.158M41.7895 13.158L61.6842 2V29.8951M41.7895 13.158V33.6144M55.0526 54.0708V54.108M62.0854 61.9596C63.4769 60.3992 64.4246 58.411 64.8086 56.2465C65.1927 54.082 64.9959 51.8383 64.2431 49.7992C63.4903 47.7602 62.2153 46.0173 60.5794 44.7911C58.9435 43.5649 57.0202 42.9104 55.0526 42.9104C53.0851 42.9104 51.1618 43.5649 49.5259 44.7911C47.89 46.0173 46.615 47.7602 45.8622 49.7992C45.1094 51.8383 44.9126 54.082 45.2966 56.2465C45.6807 58.411 46.6284 60.3992 48.0198 61.9596C49.4058 63.518 51.7501 65.8463 55.0526 68.9482C58.5375 65.638 60.8851 63.3097 62.0854 61.9596Z" stroke="#3E7A4A" stroke-width="4" stroke-linecap="round" stroke-linejoin="round"/>
</svg>
